<?xml version="1.0" encoding="UTF-8"?>
<svg xmlns="http://www.w3.org/2000/svg" version="1.1" viewBox="0 0 1461.9 1149.1">
  <defs>
    <style>
      .cls-1 {
        font-family: Montserrat-SemiBold, Montserrat;
        font-size: 17.1px;
        font-weight: 600;
      }

      .cls-1, .cls-2 {
        fill: #d14a4a;
      }

      .cls-3 {
        stroke: #d14a4a;
        stroke-miterlimit: 10;
        stroke-width: 2.8px;
      }

      .cls-3, .cls-4 {
        fill: #fff;
      }

      .cls-3, .cls-4, .cls-2, .cls-5 {
        fill-rule: evenodd;
      }

      .cls-6 {
        fill: #7fba27;
      }

      .cls-7, .cls-5 {
        fill: #f3f3ef;
      }

      .cls-8 {
        display: none;
      }
    </style>
  </defs>
  <!-- Generator: Adobe Illustrator 28.6.0, SVG Export Plug-In . SVG Version: 1.2.0 Build 709)  -->
  <g>
    <g id="_Слой_1" data-name="Слой_1">
      <g id="_Слой_1-2" data-name="_Слой_1">
        <g id="_x31__этаж">
          <polygon id="_x31_00" class="cls-3" points="419.7 419.3 419.7 350.5 347.3 350.5 313 350.5 313 420 419.7 420 419.7 419.3"/>
          <polygon id="_x31_01" class="cls-3" points="550.3 520.4 550.3 492 550.3 449.4 456 449.4 456 520.4 503.1 520.4 550.3 520.4"/>
          <path id="_x31_02" class="cls-3" d="M419.7,350.5v69.5h221.4v-171.3h-293.9v101.7h72.5Z"/>
          <polygon id="_x31_03" class="cls-3" points="550.3 492 611.4 492 611.4 449.4 550.3 449.4 550.3 492"/>
          <polygon id="_x31_04" class="cls-3" points="565.8 520.4 611.4 520.4 611.4 492 550.3 492 550.3 520.4 565.8 520.4"/>
          <polygon id="_x31_05" class="cls-3" points="733.2 608.5 733.2 556.2 645.8 556.2 645.8 608.5 733.2 608.5"/>
          <polygon id="_x31_06" class="cls-3" points="733.2 661.7 733.2 609.4 645.8 609.4 645.8 661.7 733.2 661.7"/>
          <polygon id="_x31_07" class="cls-3" points="732.9 248.7 732.9 526.8 1011.2 526.8 1011.2 248.7 732.9 248.7"/>
          <polygon id="_x31_08" class="cls-3" points="1121.3 517.2 1222.7 517.2 1222.7 248.7 1011.2 248.7 1011.2 526.8 1057.3 526.8 1121.3 526.8 1121.3 517.2"/>
          <polygon id="_x31_09" class="cls-3" points="1086.1 698.5 1086.1 556.2 1011.3 556.2 1011.3 698.5 1086.1 698.5"/>
          <polygon id="_x31_10" class="cls-3" points="1120.8 728 1120.8 901.1 1222.7 901.1 1222.7 803.1 1222.7 728 1120.8 728"/>
          <polygon id="_x31_11" class="cls-3" points="1011.3 698.5 1011.3 556.2 933.9 556.2 933.9 698.5 1011.3 698.5"/>
          <polygon id="_x31_12" class="cls-3" points="933.3 728 933.3 901.1 1120.8 901.1 1120.8 728 933.3 728"/>
          <polygon id="_x31_13" class="cls-3" points="933.9 698.5 933.9 556.2 733.2 556.2 733.2 659.2 733.2 698.5 933.9 698.5"/>
          <polygon id="_x31_14" class="cls-3" points="733 728 733 901.1 933.3 901.1 933.3 728 733 728"/>
          <polygon id="_x31_15" class="cls-3" points="465.1 689.6 465.1 900.5 646.4 900.5 646.4 689.6 465.1 689.6"/>
          <polygon id="_x31_16" class="cls-3" points="465.1 689.6 347 689.6 347 729.2 263.8 729.2 263.8 804.9 312.1 804.9 312.1 900.5 465.1 900.5 465.1 689.6"/>
          <polygon id="guard" class="cls-3" points="411.6 657.9 411.6 607.4 374.5 607.4 356.9 607.4 356.9 658.5 411.6 658.5 411.6 657.9"/>
          <polygon id="tambur" class="cls-3" points="291.9 700.1 291.9 611.1 256.6 611.1 239.9 611.1 239.9 701 291.9 701 291.9 700.1"/>
          <polygon id="f1-toilet-left" class="cls-3" points="611.4 647.2 611.4 520.4 565.8 520.4 565.8 598.5 565.8 647.2 611.4 647.2"/>
          <polygon id="f1-elevator-left" class="cls-3" points="569.5 598.5 569.5 520.4 553.8 520.4 506.8 520.4 506.8 598.5 569.5 598.5"/>
          <polygon id="f1-elevator-right" class="cls-3" points="1116.8 652.3 1222.7 652.3 1222.7 604.9 1116.8 604.9 1116.8 652.3"/>
          <polygon id="f1-toilet-right" class="cls-3" points="1116.8 604.9 1222.7 604.9 1222.7 546.7 1116.8 546.7 1116.8 604.9"/>
          <g id="elevator_x5F_icon">
            <path class="cls-2" d="M527.3,548.3h14.5c2.2,0,3.9,1.9,3.9,4.1v14.1c0,2.3-1.8,4.1-3.9,4.1h-14.5c-2.2,0-3.9-1.9-3.9-4.1v-14.1c0-2.3,1.8-4.1,3.9-4.1Z"/>
            <path class="cls-5" d="M538.8,556c0-.6-.5-1-1-1h-7.2c-.6,0-1,.5-1,1v10.1c0,.6.5,1,1,1h7.2c.6,0,1-.5,1-1v-10.1ZM537.7,555.6c.2,0,.3.2.3.3v10.1c0,.2-.2.3-.3.3h-7.2c-.2,0-.3-.2-.3-.3v-10.1c0-.2.2-.3.3-.3h7.2Z"/>
            <path class="cls-5" d="M534.1,554.8c.2,0,.3.2.3.3v11.6c0,.2-.2.3-.3.3s-.3-.2-.3-.3v-11.6c0-.2.2-.3.3-.3Z"/>
            <path class="cls-5" d="M530.9,552.4c0-.2.2-.3.3-.3h5.8c.2,0,.3.2.3.3v1.4c0,.2-.2.3-.3.3h-5.8c-.2,0-.3-.2-.3-.3v-1.4h0ZM531.6,552.7v.7h5.1v-.7h-5.1Z"/>
            <path class="cls-5" d="M540.7,562c0,0,.4,0,.5,0l1-1c0,0,0-.4,0-.5s-.4,0-.5,0l-.5.5v-1.7c0-.2-.2-.3-.3-.3s-.3.2-.3.3v1.7l-.5-.5c0,0-.4,0-.5,0s0,.4,0,.5l1,1h0Z"/>
            <path class="cls-5" d="M527,559.3c0,0,.4,0,.5,0l1,1c0,0,0,.4,0,.5s-.4,0-.5,0l-.5-.5v1.7c0,.2-.2.3-.3.3s-.3-.2-.3-.3v-1.7l-.5.5c0,0-.4,0-.5,0s0-.4,0-.5l1-1h0Z"/>
          </g>
          <g id="toilet-icon">
            <path class="cls-2" d="M580.5,571.9h14.5c2.2,0,3.9,1.9,3.9,4.1v14.1c0,2.3-1.8,4.1-3.9,4.1h-14.5c-2.2,0-3.9-1.9-3.9-4.1v-14.1c0-2.3,1.8-4.1,3.9-4.1Z"/>
            <path class="cls-7" d="M584.2,578.2h-3.3c-.8,0-1.4.6-1.4,1.4v4.6c0,.3.2.6.6.6h0c.3,0,.6-.3.6-.6v-4.6h0s0,0,0,0c0,0,0,0,0,0v10.5c0,.4.3.7.7.7s.7-.3.7-.7v-6h.3v6c0,.4.3.7.7.7s.7-.3.7-.7v-10.5s0,0,0,0c0,0,0,0,0,0h0v4.6c0,.3.3.6.6.6h0c.3,0,.6-.3.6-.6v-4.6h0c0-.8-.6-1.4-1.4-1.4h.2Z"/>
            <circle class="cls-7" cx="582.5" cy="576.6" r="1.2"/>
            <path class="cls-7" d="M596.3,583.3s-1.1-3.2-1.3-3.8c-.3-.8-.7-1.2-1.4-1.2h-2.2c-.6,0-1.1.4-1.4,1.2-.2.5-1.3,3.7-1.3,3.8,0,.3,0,.7.4.8.3,0,.7,0,.8-.4,0,0,.7-2,1.1-3.1,0,.3,0-.3-.9,4.6,0,.2,0,.4.3.4h.5v4.4c0,.4.3.7.7.7s.7-.3.7-.7v-4.4h.3v4.4c0,.4.3.7.7.7s.7-.3.7-.7v-4.4h.5c.2,0,.4-.2.3-.4-.9-4.9-.8-4.3-.8-4.6.4,1.1,1,3,1,3.1,0,.3.5.5.8.4s.5-.4.4-.8h.1Z"/>
            <circle class="cls-7" cx="592.4" cy="576.6" r="1.2"/>
            <path class="cls-7" d="M587.3,576.1c-.3,0-.5.2-.5.5v13c0,.3.2.5.5.5s.5-.2.5-.5v-13c0-.3-.2-.5-.5-.5Z"/>
          </g>
          <g id="stairs-icon">
            <path class="cls-2" d="M286.3,282.5h14.5c2.2,0,3.9,1.9,3.9,4.1v14.1c0,2.3-1.8,4.1-3.9,4.1h-14.5c-2.2,0-3.9-1.9-3.9-4.1v-14.1c0-2.3,1.8-4.1,3.9-4.1Z"/>
            <polygon class="cls-7" points="300.1 295.1 300.1 294 299 294 296.5 294 295.4 295.1 298.4 295.1 296 297.5 296.6 298.2 299 295.8 299 298.7 300.1 297.6 300.1 295.1"/>
            <polygon class="cls-7" points="289.6 297.1 292.4 297.1 292.4 294.3 295.2 294.3 295.2 291.3 298.2 291.3 298.2 288.5 301 288.5 301 287.4 297 287.4 297 290.1 294 290.1 294 293.1 291.2 293.1 291.2 295.9 288.4 295.9 288.4 298.7 285.9 298.7 285.9 299.8 289.6 299.8 289.6 297.1"/>
          </g>
          <g id="stairs-icon_29">
            <path class="cls-2" d="M268.7,852.1h14.5c2.2,0,3.9,1.9,3.9,4.1v14.1c0,2.3-1.8,4.1-3.9,4.1h-14.5c-2.2,0-3.9-1.9-3.9-4.1v-14.1c0-2.3,1.8-4.1,3.9-4.1Z"/>
            <polygon class="cls-7" points="282.5 864.7 282.5 863.7 281.4 863.7 278.9 863.7 277.8 864.7 280.8 864.7 278.4 867.1 279.1 867.9 281.4 865.5 281.4 868.4 282.5 867.2 282.5 864.7"/>
            <polygon class="cls-7" points="272 866.7 274.8 866.7 274.8 863.9 277.6 863.9 277.6 860.9 280.6 860.9 280.6 858.1 283.4 858.1 283.4 857 279.4 857 279.4 859.8 276.4 859.8 276.4 862.9 273.6 862.9 273.6 865.6 270.9 865.6 270.9 868.4 268.5 868.4 268.5 869.5 272 869.5 272 866.7"/>
          </g>
          <g id="stairs-icon_30">
            <path class="cls-2" d="M685.5,852.1h14.5c2.2,0,3.9,1.9,3.9,4.1v14.1c0,2.3-1.8,4.1-3.9,4.1h-14.5c-2.2,0-3.9-1.9-3.9-4.1v-14.1c0-2.3,1.8-4.1,3.9-4.1Z"/>
            <polygon class="cls-7" points="699.3 864.7 699.3 863.7 698.3 863.7 695.8 863.7 694.7 864.7 697.7 864.7 695.3 867.1 695.9 867.9 698.3 865.5 698.3 868.4 699.3 867.2 699.3 864.7"/>
            <polygon class="cls-7" points="688.9 866.7 691.7 866.7 691.7 863.9 694.4 863.9 694.4 860.9 697.5 860.9 697.5 858.1 700.2 858.1 700.2 857 696.3 857 696.3 859.8 693.3 859.8 693.3 862.9 690.5 862.9 690.5 865.6 687.7 865.6 687.7 868.4 685.3 868.4 685.3 869.5 688.9 869.5 688.9 866.7"/>
          </g>
          <g id="stairs-icon_33">
            <path class="cls-2" d="M680.4,282.5h14.5c2.2,0,3.9,1.9,3.9,4.1v14.1c0,2.3-1.8,4.1-3.9,4.1h-14.5c-2.2,0-3.9-1.9-3.9-4.1v-14.1c0-2.3,1.8-4.1,3.9-4.1Z"/>
            <polygon class="cls-7" points="694.3 295.1 694.3 294 693.1 294 690.7 294 689.6 295.1 692.6 295.1 690.2 297.5 690.8 298.2 693.1 295.8 693.1 298.7 694.3 297.6 694.3 295.1"/>
            <polygon class="cls-7" points="683.8 297.1 686.5 297.1 686.5 294.3 689.3 294.3 689.3 291.3 692.3 291.3 692.3 288.5 695.1 288.5 695.1 287.4 691.3 287.4 691.3 290.1 688.2 290.1 688.2 293.1 685.5 293.1 685.5 295.9 682.7 295.9 682.7 298.7 680.2 298.7 680.2 299.8 683.8 299.8 683.8 297.1"/>
          </g>
          <g id="toilet-icon_36">
            <path class="cls-2" d="M1161.7,563.9h14.5c2.2,0,3.9,1.9,3.9,4.1v14.1c0,2.3-1.8,4.1-3.9,4.1h-14.5c-2.2,0-3.9-1.9-3.9-4.1v-14.1c0-2.3,1.8-4.1,3.9-4.1Z"/>
            <path class="cls-7" d="M1165.4,570.3h-3.3c-.8,0-1.4.6-1.4,1.4v4.6c0,.3.2.6.6.6h0c.3,0,.6-.3.6-.6v-4.6h0s0,0,0,0,0,0,0,0v10.5c0,.4.3.7.7.7s.7-.3.7-.7v-6h.3v6c0,.4.3.7.7.7s.7-.3.7-.7v-10.5s0,0,0,0c0,0,0,0,0,0h0v4.6c0,.3.3.6.6.6h0c.3,0,.6-.3.6-.6v-4.6h0c0-.8-.6-1.4-1.4-1.4h.2Z"/>
            <circle class="cls-7" cx="1163.7" cy="568.6" r="1.2"/>
            <path class="cls-7" d="M1177.4,575.3s-1.1-3.2-1.3-3.8c-.3-.8-.7-1.2-1.4-1.2h-2.2c-.6,0-1.1.4-1.4,1.2-.2.5-1.3,3.7-1.3,3.8,0,.3,0,.7.4.8.3,0,.7,0,.8-.4,0,0,.7-2,1.1-3.1,0,.3,0-.3-.9,4.6,0,.2,0,.4.3.4h.5v4.4c0,.4.3.7.7.7s.7-.3.7-.7v-4.4h.3v4.4c0,.4.3.7.7.7s.7-.3.7-.7v-4.4h.5c.2,0,.4-.2.3-.4-.9-4.9-.8-4.3-.8-4.6.4,1.1,1,3,1,3.1,0,.3.5.5.8.4s.5-.4.4-.8h.1Z"/>
            <circle class="cls-7" cx="1173.6" cy="568.6" r="1.2"/>
            <path class="cls-7" d="M1168.5,568.1c-.3,0-.5.2-.5.5v13c0,.3.2.5.5.5s.5-.2.5-.5v-13c0-.3-.2-.5-.5-.5Z"/>
          </g>
          <g id="elevator_x5F_icon_37">
            <path class="cls-2" d="M1162.5,617.4h14.5c2.2,0,3.9,1.9,3.9,4.1v14.1c0,2.3-1.8,4.1-3.9,4.1h-14.5c-2.2,0-3.9-1.9-3.9-4.1v-14.1c0-2.3,1.8-4.1,3.9-4.1Z"/>
            <path class="cls-5" d="M1174.1,625.2c0-.6-.5-1-1-1h-7.2c-.6,0-1,.5-1,1v10.1c0,.6.5,1,1,1h7.2c.6,0,1-.5,1-1v-10.1ZM1173,624.8c.2,0,.3.2.3.3v10.1c0,.2-.2.3-.3.3h-7.2c-.2,0-.3-.2-.3-.3v-10.1c0-.2.2-.3.3-.3h7.2Z"/>
            <path class="cls-5" d="M1169.4,624.1c.2,0,.3.2.3.3v11.6c0,.2-.2.3-.3.3s-.3-.2-.3-.3v-11.6c0-.2.2-.3.3-.3Z"/>
            <path class="cls-5" d="M1166.2,621.6c0-.2.2-.3.3-.3h5.8c.2,0,.3.2.3.3v1.4c0,.2-.2.3-.3.3h-5.8c-.2,0-.3-.2-.3-.3v-1.4h0ZM1166.8,621.9v.7h5.1v-.7h-5.1Z"/>
            <path class="cls-5" d="M1176,631.2c0,0,.4,0,.5,0l1-1c0,0,0-.4,0-.5s-.4,0-.5,0l-.5.5v-1.7c0-.2-.2-.3-.3-.3s-.3.2-.3.3v1.7l-.5-.5c0,0-.4,0-.5,0s0,.4,0,.5l1,1h.1Z"/>
            <path class="cls-5" d="M1162.3,628.5c0,0,.4,0,.5,0l1,1c0,0,0,.4,0,.5s-.4,0-.5,0l-.5-.5v1.7c0,.2-.2.3-.3.3s-.3-.2-.3-.3v-1.7l-.5.5c0,0-.4,0-.5,0s0-.4,0-.5l1-1h.1Z"/>
          </g>
          <g id="stairs-icon_29-2">
            <path class="cls-2" d="M538.4,616.2h14.5c2.2,0,3.9,1.9,3.9,4.1v14.1c0,2.3-1.8,4.1-3.9,4.1h-14.5c-2.2,0-3.9-1.9-3.9-4.1v-14.1c0-2.3,1.8-4.1,3.9-4.1Z"/>
            <polygon class="cls-7" points="552.3 628.8 552.3 627.7 551.2 627.7 548.7 627.7 547.5 628.8 550.5 628.8 548.2 631.2 548.9 631.9 551.2 629.5 551.2 632.4 552.3 631.3 552.3 628.8"/>
            <polygon class="cls-7" points="541.7 630.8 544.5 630.8 544.5 628 547.3 628 547.3 625 550.3 625 550.3 622.2 553.1 622.2 553.1 621.1 549.2 621.1 549.2 623.9 546.2 623.9 546.2 626.9 543.4 626.9 543.4 629.7 540.7 629.7 540.7 632.4 538.1 632.4 538.1 633.5 541.7 633.5 541.7 630.8"/>
          </g>
          <g id="doors">
            <path id="path1330" class="cls-4" d="M1081.7,527.2h-22.5v1.1h22.5v-1.1ZM1081.7,527.2v3.9h2v-3.9h-2ZM1059.2,527.2h-2v3.9h2v-3.9ZM1059.2,527.2v-11.3h2v11.3h-2ZM1081.7,527.2v-11.3h-2v11.3h2Z"/>
            <path id="path1330-2" class="cls-4" d="M892,527.2h-22.5v1.1h22.5v-1.1ZM892,527.2v3.9h2v-3.9h-2ZM869.6,527.2h-2v3.9h2v-3.9ZM869.6,527.2v-11.3h2v11.3h-2ZM892,527.2v-11.3h-2v11.3h2Z"/>
            <path id="path1330-3" class="cls-4" d="M544.3,420.4h-22.5v1.1h22.5v-1.1ZM544.3,420.4v3.9h2v-3.9h-2ZM521.9,420.4h-2v3.9h2v-3.9ZM521.9,420.4v-11.3h2v11.3h-2ZM544.3,420.4v-11.3h-2v11.3h2Z"/>
            <path id="path1330-4" class="cls-4" d="M319.5,350h22.5v-1.1h-22.5v1.1ZM319.5,350v-3.9h-2v3.9h2ZM341.9,350h2v-3.9h-2v3.9ZM342,350v11.3h-2v-11.3h2ZM319.5,350v11.3h2v-11.3h-2Z"/>
            <path id="path1330-5" class="cls-4" d="M1159.7,546.2h22.5v-1.1h-22.5v1.1ZM1159.7,546.2v-3.9h-2v3.9h2ZM1182.2,546.2h2v-3.9h-2v3.9ZM1182.2,546.2v11.3h-2v-11.3h2ZM1159.7,546.2v11.3h2v-11.3h-2Z"/>
            <path id="path1330-6" class="cls-4" d="M495,449.1h22.5v-1.1h-22.5v1.1ZM495,449.1v-3.9h-2v3.9h2ZM517.4,449.1h2v-3.9h-2v3.9ZM517.4,449.1v11.3h-2v-11.3h2ZM495,449.1v11.3h2v-11.3h-2Z"/>
            <path id="path1330-7" class="cls-4" d="M611.7,457.1v22.5h1.1v-22.5h-1.1ZM611.7,457.1h3.9v-2h-3.9v2ZM611.7,479.5v2h3.9v-2h-3.9ZM611.7,479.5h-11.3v-2h11.3v2ZM611.7,457.1h-11.3v2h11.3v-2Z"/>
            <path id="path1330-8" class="cls-4" d="M611.8,494.9v22.5h1.1v-22.5h-1.1ZM611.8,494.9h3.9v-2h-3.9v2ZM611.8,517.4v2h3.9v-2h-3.9ZM611.8,517.4h-11.3v-2h11.3v2ZM611.8,494.9h-11.3v2h11.3v-2Z"/>
            <path id="path1330-9" class="cls-4" d="M611.9,571.8v22.5h1.1v-22.5h-1.1ZM611.9,571.8h3.9v-2h-3.9v2ZM611.9,594.3v2h3.9v-2h-3.9ZM611.9,594.3h-11.3v-2h11.3v2ZM611.9,571.8h-11.3v2h11.3v-2Z"/>
            <path id="path1330-10" class="cls-4" d="M653.6,555.8h22.5v-1.1h-22.5v1.1ZM653.6,555.8v-3.9h-2v3.9h2ZM676.1,555.8h2v-3.9h-2v3.9ZM676.1,555.8v11.3h-2v-11.3h2ZM653.6,555.8v11.3h2v-11.3h-2Z"/>
            <path id="path1330-11" class="cls-4" d="M799.8,698.9h-22.5v1.1h22.5v-1.1ZM799.8,698.9v3.9h2v-3.9h-2ZM777.3,698.9h-2v3.9h2v-3.9ZM777.3,698.9v-11.3h2v11.3h-2ZM799.8,698.9v-11.3h-2v11.3h2Z"/>
            <path id="path1330-12" class="cls-4" d="M987.7,698.9h-22.5v1.1h22.5v-1.1ZM987.7,698.9v3.9h2v-3.9h-2ZM965.2,698.9h-2v3.9h2v-3.9ZM965.2,698.9v-11.3h2v11.3h-2ZM987.7,698.9v-11.3h-2v11.3h2Z"/>
            <path id="path1330-13" class="cls-4" d="M1061.1,698.9h-22.5v1.1h22.5v-1.1ZM1061.1,698.9v3.9h2v-3.9h-2ZM1038.6,698.9h-2v3.9h2v-3.9ZM1038.6,698.9v-11.3h2v11.3h-2ZM1061.1,698.9v-11.3h-2v11.3h2Z"/>
            <path id="path1330-14" class="cls-4" d="M425.5,689.1h22.5v-1.1h-22.5v1.1ZM425.5,689.1v-3.9h-2v3.9h2ZM448,689.1h2v-3.9h-2v3.9ZM448,689.1v11.3h-2v-11.3h2ZM425.5,689.1v11.3h2v-11.3h-2Z"/>
            <path id="path1330-15" class="cls-4" d="M618.1,689.1h22.5v-1.1h-22.5v1.1ZM618.1,689.1v-3.9h-2v3.9h2ZM640.6,689.1h2v-3.9h-2v3.9ZM640.6,689.1v11.3h-2v-11.3h2ZM618.1,689.1v11.3h2v-11.3h-2Z"/>
            <path id="path1330-16" class="cls-4" d="M292.6,645.2v22.5h1.1v-22.5h-1.1ZM292.6,645.2h3.9v-2h-3.9v2ZM292.6,667.6v2h3.9v-2h-3.9ZM292.6,667.6h-11.3v-2h11.3v2ZM292.6,645.2h-11.3v2h11.3v-2Z"/>
            <path id="path1330-17" class="cls-4" d="M879.9,727.5h22.5v-1.1h-22.5v1.1ZM879.9,727.5v-3.9h-2v3.9h2ZM902.5,727.5h2v-3.9h-2v3.9ZM902.5,727.5v11.3h-2v-11.3h2ZM879.9,727.5v11.3h2v-11.3h-2Z"/>
            <path id="path1330-18" class="cls-4" d="M1055.2,727.3h22.5v-1.1h-22.5v1.1ZM1055.2,727.3v-3.9h-2v3.9h2ZM1077.6,727.3h2v-3.9h-2v3.9ZM1077.6,727.3v11.3h-2v-11.3h2ZM1055.2,727.3v11.3h2v-11.3h-2Z"/>
            <path id="path1330-19" class="cls-4" d="M1136.8,727.5h22.5v-1.1h-22.5v1.1ZM1136.8,727.5v-3.9h-2v3.9h2ZM1159.3,727.5h2v-3.9h-2v3.9ZM1159.3,727.5v11.3h-2v-11.3h2ZM1136.8,727.5v11.3h2v-11.3h-2Z"/>
            <path id="path1330-2-2" class="cls-4" d="M673.1,662h-22.5v1.1h22.5v-1.1ZM673.1,662v3.9h2v-3.9h-2ZM650.6,662h-2v3.9h2v-3.9ZM650.6,662v-11.3h2v11.3h-2ZM673.1,662v-11.3h-2v11.3h2Z"/>
          </g>
          <g class="cls-8">
            <circle id="p-1" class="cls-6" cx="482.1" cy="561" r="6.6"/>
            <circle id="elevator-left-obj" class="cls-6" cx="506.8" cy="561" r="6.6" transform="translate(-176.1 236.6) rotate(-22.5)"/>
            <circle id="guard-obj" class="cls-6" cx="384.2" cy="607.4" r="6.6"/>
            <circle id="tambur-obj" class="cls-6" cx="291.9" cy="656.5" r="6.6"/>
            <circle id="p-2" class="cls-6" cx="436.7" cy="560.6" r="6.6"/>
            <circle id="p-3" class="cls-6" cx="384.2" cy="561" r="6.6"/>
            <circle id="p-4" class="cls-6" cx="325.1" cy="561" r="6.6"/>
            <circle id="p-5" class="cls-6" cx="325.1" cy="656.5" r="6.6"/>
            <circle id="p-6" class="cls-6" cx="325.1" cy="676.3" r="6.6"/>
            <circle id="p-116" class="cls-6" cx="437.2" cy="676.3" r="6.6"/>
            <circle id="obj-116" class="cls-6" cx="437.2" cy="690" r="6.6"/>
            <circle id="p-115" class="cls-6" cx="630.3" cy="676.3" r="6.6"/>
            <circle id="obj-115" class="cls-6" cx="630.3" cy="690" r="6.6"/>
            <circle id="p-106" class="cls-6" cx="661.9" cy="676.3" r="6.6"/>
            <circle id="obj-106" class="cls-6" cx="661.9" cy="661.7" r="6.6"/>
            <circle id="p-100" class="cls-6" cx="384.2" cy="434.7" r="6.6"/>
            <circle id="obj-100" class="cls-6" cx="384.2" cy="420" r="6.6"/>
            <circle id="p-101" class="cls-6" cx="506.1" cy="434.7" r="6.6"/>
            <circle id="obg-101" class="cls-6" cx="506.1" cy="449.4" r="6.6"/>
            <circle id="p-102" class="cls-6" cx="533" cy="434.7" r="6.6"/>
            <circle id="obj-102" class="cls-6" cx="533" cy="420" r="6.6"/>
            <circle id="p-7" class="cls-6" cx="630.3" cy="434.7" r="6.6"/>
            <circle id="p-103" class="cls-6" cx="630.3" cy="468.2" r="6.6"/>
            <circle id="obg-103" class="cls-6" cx="611.4" cy="468.2" r="6.6"/>
            <circle id="p-104" class="cls-6" cx="630.3" cy="506.2" r="6.6"/>
            <circle id="obg-104" class="cls-6" cx="611.4" cy="506.2" r="6.6"/>
            <circle id="p-8" class="cls-6" cx="630.3" cy="539.6" r="6.6"/>
            <circle id="p-toilet-left" class="cls-6" cx="630.3" cy="583.8" r="6.6"/>
            <circle id="toilet-left-object" class="cls-6" cx="611.9" cy="583.8" r="6.6"/>
            <circle id="p-105" class="cls-6" cx="665.8" cy="539.6" r="6.6"/>
            <circle id="obj-105" class="cls-6" cx="665.8" cy="556.2" r="6.6"/>
            <circle id="p-107" class="cls-6" cx="880.7" cy="539.6" r="6.6"/>
            <circle id="obj-107" class="cls-6" cx="880.7" cy="526.8" r="6.6"/>
            <circle id="p-108" class="cls-6" cx="1070.5" cy="539.6" r="6.6"/>
            <circle id="obj-108" class="cls-6" cx="1070.5" cy="527.7" r="6.6"/>
            <circle id="p-9" class="cls-6" cx="692.7" cy="676.3" r="6.6"/>
            <circle id="p-10" class="cls-6" cx="692.7" cy="712.2" r="6.6"/>
            <circle id="p-113" class="cls-6" cx="788.5" cy="712.2" r="6.6"/>
            <circle id="obj-113" class="cls-6" cx="788.5" cy="698.5" r="6.6"/>
            <circle id="p-112" class="cls-6" cx="891.2" cy="712.2" r="6.6"/>
            <circle id="obj-112" class="cls-6" cx="891.2" cy="728" r="6.6"/>
            <circle id="p-111" class="cls-6" cx="976.4" cy="712.2" r="6.6"/>
            <circle id="obj-111" class="cls-6" cx="976.4" cy="698.5" r="6.6"/>
            <circle id="p-109" class="cls-6" cx="1049.8" cy="712.2" r="6.6"/>
            <circle id="obj-109" class="cls-6" cx="1049.8" cy="698.5" r="6.6"/>
            <circle id="p-112-2" class="cls-6" cx="1066.5" cy="712.2" r="6.6"/>
            <circle id="obj-112-2" class="cls-6" cx="1066.5" cy="728" r="6.6"/>
            <circle id="p-11" class="cls-6" cx="1101.3" cy="712.2" r="6.6"/>
            <circle id="p-110" class="cls-6" cx="1148" cy="712.2" r="6.6"/>
            <circle id="obj-110" class="cls-6" cx="1148" cy="728" r="6.6"/>
            <circle id="p-11-2" class="cls-6" cx="1168.9" cy="712.2" r="6.6"/>
            <circle id="elevator-right-obj" class="cls-6" cx="1169.1" cy="652.3" r="6.6"/>
            <circle id="p-12" class="cls-6" cx="1101.3" cy="539.6" r="6.6"/>
            <circle id="p-toilet-right" class="cls-6" cx="1169.7" cy="539.6" r="6.6"/>
            <circle id="toilet-right-obj" class="cls-6" cx="1169.7" cy="546.7" r="6.6"/>
          </g>
          <path id="main" class="cls-2" d="M1224.6,245.8H237.3v657.6h987.3V245.8h0ZM241.1,251.3h979.7v646.5H241.1V251.3h0Z"/>
        </g>
      </g>
      <text class="cls-1" transform="translate(479.5 492)"><tspan x="0" y="0">№101</tspan></text>
      <text class="cls-1" transform="translate(497 344)"><tspan x="0" y="0">№102</tspan></text>
      <text class="cls-1" transform="translate(663.1 588.4)"><tspan x="0" y="0">№105</tspan></text>
      <text class="cls-1" transform="translate(664.8 642)"><tspan x="0" y="0">№106</tspan></text>
      <text class="cls-1" transform="translate(846.4 387.8)"><tspan x="0" y="0">№107</tspan></text>
      <text class="cls-1" transform="translate(1093.1 387.9)"><tspan x="0" y="0">№108</tspan></text>
      <text class="cls-1" transform="translate(1023.4 631.3)"><tspan x="0" y="0">№109</tspan></text>
      <text class="cls-1" transform="translate(1149.1 819)"><tspan x="0" y="0">№110</tspan></text>
      <text class="cls-1" transform="translate(952.9 631.5)"><tspan x="0" y="0">№111</tspan></text>
      <text class="cls-1" transform="translate(1007.8 819)"><tspan x="0" y="0">№112</tspan></text>
      <text class="cls-1" transform="translate(809.3 631.3)"><tspan x="0" y="0">№113</tspan></text>
      <text class="cls-1" transform="translate(810.9 819.1)"><tspan x="0" y="0">№114</tspan></text>
      <text class="cls-1" transform="translate(533.8 798.4)"><tspan x="0" y="0">№115</tspan></text>
      <text class="cls-1" transform="translate(366.9 798.5)"><tspan x="0" y="0">№116</tspan></text>
    </g>
  </g>
</svg>