<?xml version="1.0" encoding="UTF-8"?>
<svg xmlns="http://www.w3.org/2000/svg" version="1.1" viewBox="0 0 1461.9 1149.1">
  <defs>
    <style>
      .cls-1, .cls-2 {
        fill: #fff;
      }

      .cls-1, .cls-2, .cls-3, .cls-4 {
        fill-rule: evenodd;
      }

      .cls-2 {
        stroke: #d14a4a;
        stroke-miterlimit: 10;
        stroke-width: 2.8px;
      }

      .cls-5, .cls-4 {
        fill: #f3f3ef;
      }

      .cls-3 {
        fill: #d14a4a;
      }
    </style>
  </defs>
  <!-- Generator: Adobe Illustrator 28.7.1, SVG Export Plug-In . SVG Version: 1.2.0 Build 142)  -->
  <g>
    <g id="_Слой_1" data-name="Слой_1">
      <path class="cls-3" d="M1436.4,268.2H25.3v635.5h1411.1V268.2h0ZM30.7,273.6h1400.3v624.8H30.7V273.6h0Z"/>
      <polygon id="f2-19" class="cls-2" points="879.1 734.2 879.1 898.4 977.6 898.4 977.6 805.5 977.6 734.2 879.1 734.2"/>
      <polygon id="f2-18" class="cls-2" points="697.9 734.2 697.9 898.4 879.1 898.4 879.1 734.2 697.9 734.2"/>
      <polygon id="f2-17" class="cls-2" points="504.3 734.2 504.3 898.4 697.9 898.4 697.9 734.2 504.3 734.2"/>
      <polygon id="f2-16" class="cls-2" points="245.4 697.1 245.4 898.4 420.6 898.4 420.6 697.1 245.4 697.1"/>
      <polygon id="f2-15" class="cls-2" points="245.4 697.1 131.3 697.1 131.3 734.9 50.9 734.9 50.9 807.2 97.6 807.2 97.6 898.4 245.4 898.4 245.4 697.1"/>
      <polygon id="f2-guard" class="cls-2" points="193.7 666.5 193.7 617.7 157.9 617.7 140.9 617.7 140.9 667.1 193.7 667.1 193.7 666.5"/>
      <polygon id="f2-tambur" class="cls-2" points="78.1 707.3 78.1 621.3 43.9 621.3 27.8 621.3 27.8 708.2 78.1 708.2 78.1 707.3"/>
      <polygon id="f2-elevator-right" class="cls-2" points="875.2 661.1 977.6 661.1 977.6 615.3 875.2 615.3 875.2 661.1"/>
      <polygon id="f2-toilet-right" class="cls-2" points="875.2 615.3 977.6 615.3 977.6 559 875.2 559 875.2 615.3"/>
      <polygon id="f2-14" class="cls-2" points="845.6 705.7 845.6 568.2 773.3 568.2 773.3 705.7 845.6 705.7"/>
      <polygon id="f2-13" class="cls-2" points="773.3 705.7 773.3 568.2 698.5 568.2 698.5 705.7 773.3 705.7"/>
      <polygon id="f2-12" class="cls-2" points="698.5 705.7 698.5 568.2 504.5 568.2 504.5 667.8 504.5 705.7 698.5 705.7"/>
      <polygon id="f2-11" class="cls-2" points="504.5 667.8 504.5 568.2 420.1 568.2 420.1 667.8 504.5 667.8"/>
      <polygon id="f2-toilet-left" class="cls-2" points="386.8 656.2 386.8 533.6 342.8 533.6 342.8 609.1 342.8 656.2 386.8 656.2"/>
      <polygon id="f2-elevator-center" class="cls-2" points="346.3 609.1 346.3 533.6 331.2 533.6 285.7 533.6 285.7 609.1 346.3 609.1"/>
      <polygon id="f2-9" class="cls-2" points="342.8 533.6 386.8 533.6 386.8 506.2 327.8 506.2 327.8 533.6 342.8 533.6"/>
      <polygon id="f2-8" class="cls-2" points="327.8 506.2 386.8 506.2 386.8 465 327.8 465 327.8 506.2"/>
      <polygon id="f2-7" class="cls-2" points="327.8 533.6 327.8 506.2 327.8 465 236.6 465 236.6 533.6 282.2 533.6 327.8 533.6"/>
      <polygon id="f2-6" class="cls-2" points="977.6 805.5 977.6 898.4 1320.8 898.4 1320.8 805.5 977.6 805.5"/>
      <polygon id="f2-5" class="cls-2" points="977.6 805.5 1320.8 805.5 1320.8 898.4 1431 898.4 1431 273.6 977.6 273.6 977.6 530.6 977.6 559 977.6 615.3 977.6 661.1 977.6 734.2 977.6 805.5"/>
      <polygon id="f2-4" class="cls-2" points="879.6 530.6 977.6 530.6 977.6 273.6 773.2 273.6 773.2 539.8 817.7 539.8 879.6 539.8 879.6 530.6"/>
      <polygon id="f2-3" class="cls-2" points="504.2 273.6 504.2 539.8 773.2 539.8 773.2 273.6 504.2 273.6"/>
      <polygon id="f2-2" class="cls-2" points="201.6 369.4 201.6 436.6 415.6 436.6 415.6 273.6 131.6 273.6 131.6 369.4 201.6 369.4"/>
      <polygon id="f2-1" class="cls-2" points="201.6 436.6 201.6 369.4 131.6 369.4 98.4 369.4 98.4 437.3 201.6 437.3 201.6 436.6"/>
      <g id="elevator_x5F_icon">
        <path class="cls-3" d="M305.5,560.6h14c2.1,0,3.8,1.8,3.8,4v13.6c0,2.2-1.7,4-3.8,4h-14c-2.1,0-3.8-1.8-3.8-4v-13.6c0-2.2,1.7-4,3.8-4Z"/>
        <path class="cls-4" d="M316.7,568c0-.6-.5-1-1-1h-7c-.6,0-1,.5-1,1v9.8c0,.6.5,1,1,1h7c.6,0,1-.5,1-1v-9.8ZM315.6,567.6c.2,0,.3.2.3.3v9.8c0,.2-.2.3-.3.3h-7c-.2,0-.3-.2-.3-.3v-9.8c0-.2.2-.3.3-.3h7Z"/>
        <path class="cls-4" d="M312.1,566.9c.2,0,.3.2.3.3v11.2c0,.2-.2.3-.3.3s-.3-.2-.3-.3v-11.2c0-.2.2-.3.3-.3Z"/>
        <path class="cls-4" d="M309,564.5c0-.2.2-.3.3-.3h5.6c.2,0,.3.2.3.3v1.4c0,.2-.2.3-.3.3h-5.6c-.2,0-.3-.2-.3-.3v-1.4h0ZM309.7,564.8v.7h4.9v-.7h-4.9Z"/>
        <path class="cls-4" d="M318.5,573.8c.1.1.4.1.5,0l1-1c.1-.1.1-.4,0-.5-.1-.1-.4-.1-.5,0l-.5.5v-1.6c0-.2-.2-.3-.3-.3s-.3.2-.3.3v1.6l-.5-.5c-.1-.1-.4-.1-.5,0-.1.1-.1.4,0,.5l1,1h0Z"/>
        <path class="cls-4" d="M305.3,571.2c.1-.1.4-.1.5,0l1,1c.1.1.1.4,0,.5-.1.1-.4.1-.5,0l-.5-.5v1.6c0,.2-.2.3-.3.3s-.3-.2-.3-.3v-1.6l-.5.5c-.1.1-.4.1-.5,0-.1-.1-.1-.4,0-.5l1-1h0Z"/>
      </g>
      <g id="toilet-icon">
        <path class="cls-3" d="M357,583.4h14c2.1,0,3.8,1.8,3.8,4v13.6c0,2.2-1.7,4-3.8,4h-14c-2.1,0-3.8-1.8-3.8-4v-13.6c0-2.2,1.7-4,3.8-4Z"/>
        <path class="cls-5" d="M360.5,589.5h-3.2c-.8,0-1.4.6-1.4,1.4v4.4c0,.3.2.6.6.6h0c.3,0,.6-.3.6-.6v-4.4s0,0,0,0c0,0,0-.1.1-.1,0,0,.1,0,.1.1v10.1c0,.4.3.7.7.7s.7-.3.7-.7v-5.8h.3v5.8c0,.4.3.7.7.7s.7-.3.7-.7c0-9.5,0-4.1,0-10.1,0,0,0-.1.1-.1,0,0,.1,0,.1.1h0v4.4c0,.3.3.6.6.6h0c.3,0,.6-.3.6-.6v-4.4s0,0,0,0c0-.8-.6-1.4-1.4-1.4h0Z"/>
        <circle class="cls-5" cx="358.9" cy="587.9" r="1.2"/>
        <path class="cls-5" d="M372.2,594.4s-1.1-3.1-1.3-3.7c-.3-.8-.7-1.2-1.4-1.2h-2.1c-.6,0-1.1.4-1.4,1.2-.2.5-1.3,3.6-1.3,3.7-.1.3,0,.7.4.8.3.1.7,0,.8-.4,0-.1.7-1.9,1.1-3,0,.3,0-.3-.9,4.4,0,.2.1.4.3.4h.5v4.3c0,.4.3.7.7.7s.7-.3.7-.7v-4.3h.3v4.3c0,.4.3.7.7.7s.7-.3.7-.7v-4.3h.5c.2,0,.4-.2.3-.4-.9-4.7-.8-4.2-.8-4.4.4,1.1,1,2.9,1,3,.1.3.5.5.8.4.3-.1.5-.4.4-.8h0Z"/>
        <circle class="cls-5" cx="368.5" cy="587.9" r="1.2"/>
        <path class="cls-5" d="M363.5,587.4c-.3,0-.5.2-.5.5v12.6c0,.3.2.5.5.5s.5-.2.5-.5v-12.6c0-.3-.2-.5-.5-.5Z"/>
      </g>
      <g id="stairs-icon">
        <path class="cls-3" d="M72.6,303.7h14c2.1,0,3.8,1.8,3.8,4v13.6c0,2.2-1.7,4-3.8,4h-14c-2.1,0-3.8-1.8-3.8-4v-13.6c0-2.2,1.7-4,3.8-4Z"/>
        <polygon class="cls-5" points="86 315.9 86 314.8 84.9 314.8 82.5 314.8 81.4 315.9 84.3 315.9 82 318.2 82.6 318.9 84.9 316.6 84.9 319.4 86 318.3 86 315.9"/>
        <polygon class="cls-5" points="75.8 317.8 78.5 317.8 78.5 315.1 81.2 315.1 81.2 312.2 84.1 312.2 84.1 309.5 86.8 309.5 86.8 308.4 83 308.4 83 311.1 80.1 311.1 80.1 314 77.4 314 77.4 316.7 74.7 316.7 74.7 319.4 72.3 319.4 72.3 320.4 75.8 320.4 75.8 317.8"/>
      </g>
      <g id="stairs-icon_29">
        <path class="cls-3" d="M55.6,854.2h14c2.1,0,3.8,1.8,3.8,4v13.6c0,2.2-1.7,4-3.8,4h-14c-2.1,0-3.8-1.8-3.8-4v-13.6c0-2.2,1.7-4,3.8-4Z"/>
        <polygon class="cls-5" points="69 866.4 69 865.4 67.9 865.4 65.5 865.4 64.4 866.4 67.3 866.4 65 868.7 65.7 869.4 67.9 867.1 67.9 869.9 69 868.8 69 866.4"/>
        <polygon class="cls-5" points="58.8 868.3 61.5 868.3 61.5 865.6 64.2 865.6 64.2 862.7 67.1 862.7 67.1 860 69.8 860 69.8 858.9 66 858.9 66 861.6 63.1 861.6 63.1 864.6 60.4 864.6 60.4 867.2 57.8 867.2 57.8 869.9 55.4 869.9 55.4 871 58.8 871 58.8 868.3"/>
      </g>
      <g id="stairs-icon_30">
        <path class="cls-3" d="M458.4,854.2h14c2.1,0,3.8,1.8,3.8,4v13.6c0,2.2-1.7,4-3.8,4h-14c-2.1,0-3.8-1.8-3.8-4v-13.6c0-2.2,1.7-4,3.8-4Z"/>
        <polygon class="cls-5" points="471.8 866.4 471.8 865.4 470.8 865.4 468.4 865.4 467.3 866.4 470.2 866.4 467.9 868.7 468.5 869.4 470.8 867.1 470.8 869.9 471.8 868.8 471.8 866.4"/>
        <polygon class="cls-5" points="461.7 868.3 464.4 868.3 464.4 865.6 467 865.6 467 862.7 470 862.7 470 860 472.6 860 472.6 858.9 468.9 858.9 468.9 861.6 466 861.6 466 864.6 463.3 864.6 463.3 867.2 460.6 867.2 460.6 869.9 458.2 869.9 458.2 871 461.7 871 461.7 868.3"/>
      </g>
      <g id="stairs-icon_31">
        <path class="cls-3" d="M1001.8,854.2h14c2.1,0,3.8,1.8,3.8,4v13.6c0,2.2-1.7,4-3.8,4h-14c-2.1,0-3.8-1.8-3.8-4v-13.6c0-2.2,1.7-4,3.8-4Z"/>
        <polygon class="cls-5" points="1015.2 866.4 1015.2 865.4 1014.1 865.4 1011.7 865.4 1010.7 866.4 1013.6 866.4 1011.2 868.7 1011.9 869.4 1014.1 867.1 1014.1 869.9 1015.2 868.8 1015.2 866.4"/>
        <polygon class="cls-5" points="1005 868.3 1007.7 868.3 1007.7 865.6 1010.4 865.6 1010.4 862.7 1013.3 862.7 1013.3 860 1016 860 1016 858.9 1012.3 858.9 1012.3 861.6 1009.3 861.6 1009.3 864.6 1006.7 864.6 1006.7 867.2 1004 867.2 1004 869.9 1001.6 869.9 1001.6 871 1005 871 1005 868.3"/>
      </g>
      <g id="stairs-icon_32">
        <path class="cls-3" d="M1372.7,854.2h14c2.1,0,3.8,1.8,3.8,4v13.6c0,2.2-1.7,4-3.8,4h-14c-2.1,0-3.8-1.8-3.8-4v-13.6c0-2.2,1.7-4,3.8-4Z"/>
        <polygon class="cls-5" points="1386.1 866.4 1386.1 865.4 1385.1 865.4 1382.7 865.4 1381.6 866.4 1384.5 866.4 1382.2 868.7 1382.8 869.4 1385.1 867.1 1385.1 869.9 1386.1 868.8 1386.1 866.4"/>
        <polygon class="cls-5" points="1376 868.3 1378.7 868.3 1378.7 865.6 1381.3 865.6 1381.3 862.7 1384.3 862.7 1384.3 860 1386.9 860 1386.9 858.9 1383.2 858.9 1383.2 861.6 1380.3 861.6 1380.3 864.6 1377.6 864.6 1377.6 867.2 1374.9 867.2 1374.9 869.9 1372.5 869.9 1372.5 871 1376 871 1376 868.3"/>
      </g>
      <g id="stairs-icon_33">
        <path class="cls-3" d="M453.5,303.7h14c2.1,0,3.8,1.8,3.8,4v13.6c0,2.2-1.7,4-3.8,4h-14c-2.1,0-3.8-1.8-3.8-4v-13.6c0-2.2,1.7-4,3.8-4Z"/>
        <polygon class="cls-5" points="466.9 315.9 466.9 314.8 465.8 314.8 463.5 314.8 462.4 315.9 465.3 315.9 463 318.2 463.6 318.9 465.8 316.6 465.8 319.4 466.9 318.3 466.9 315.9"/>
        <polygon class="cls-5" points="456.8 317.8 459.4 317.8 459.4 315.1 462.1 315.1 462.1 312.2 465 312.2 465 309.5 467.7 309.5 467.7 308.4 464 308.4 464 311.1 461 311.1 461 314 458.4 314 458.4 316.7 455.7 316.7 455.7 319.4 453.3 319.4 453.3 320.4 456.8 320.4 456.8 317.8"/>
      </g>
      <g id="stairs-icon_34">
        <path class="cls-3" d="M1009.8,303.7h14c2.1,0,3.8,1.8,3.8,4v13.6c0,2.2-1.7,4-3.8,4h-14c-2.1,0-3.8-1.8-3.8-4v-13.6c0-2.2,1.7-4,3.8-4Z"/>
        <polygon class="cls-5" points="1023.2 315.9 1023.2 314.8 1022.2 314.8 1019.8 314.8 1018.7 315.9 1021.6 315.9 1019.3 318.2 1019.9 318.9 1022.2 316.6 1022.2 319.4 1023.2 318.3 1023.2 315.9"/>
        <polygon class="cls-5" points="1013.1 317.8 1015.8 317.8 1015.8 315.1 1018.4 315.1 1018.4 312.2 1021.4 312.2 1021.4 309.5 1024 309.5 1024 308.4 1020.3 308.4 1020.3 311.1 1017.4 311.1 1017.4 314 1014.7 314 1014.7 316.7 1012 316.7 1012 319.4 1009.6 319.4 1009.6 320.4 1013.1 320.4 1013.1 317.8"/>
      </g>
      <g id="stairs-icon_35">
        <path class="cls-3" d="M1269.7,303.7h14c2.1,0,3.8,1.8,3.8,4v13.6c0,2.2-1.7,4-3.8,4h-14c-2.1,0-3.8-1.8-3.8-4v-13.6c0-2.2,1.7-4,3.8-4Z"/>
        <polygon class="cls-5" points="1283.1 315.9 1283.1 314.8 1282.1 314.8 1279.7 314.8 1278.6 315.9 1281.5 315.9 1279.2 318.2 1279.8 318.9 1282.1 316.6 1282.1 319.4 1283.1 318.3 1283.1 315.9"/>
        <polygon class="cls-5" points="1273 317.8 1275.7 317.8 1275.7 315.1 1278.3 315.1 1278.3 312.2 1281.3 312.2 1281.3 309.5 1283.9 309.5 1283.9 308.4 1280.2 308.4 1280.2 311.1 1277.3 311.1 1277.3 314 1274.6 314 1274.6 316.7 1271.9 316.7 1271.9 319.4 1269.5 319.4 1269.5 320.4 1273 320.4 1273 317.8"/>
      </g>
      <g id="toilet-icon_36">
        <path class="cls-3" d="M918.6,575.7h14c2.1,0,3.8,1.8,3.8,4v13.6c0,2.2-1.7,4-3.8,4h-14c-2.1,0-3.8-1.8-3.8-4v-13.6c0-2.2,1.7-4,3.8-4Z"/>
        <path class="cls-5" d="M922.2,581.8h-3.2c-.8,0-1.4.6-1.4,1.4v4.4c0,.3.2.6.6.6h0c.3,0,.6-.3.6-.6v-4.4s0,0,0,0c0,0,0-.1.1-.1s.1,0,.1.1v10.1c0,.4.3.7.7.7s.7-.3.7-.7v-5.8h.3v5.8c0,.4.3.7.7.7s.7-.3.7-.7c0-9.5,0-4.1,0-10.1,0,0,0-.1.1-.1,0,0,.1,0,.1.1h0v4.4c0,.3.3.6.6.6h0c.3,0,.6-.3.6-.6v-4.4s0,0,0,0c0-.8-.6-1.4-1.4-1.4h0Z"/>
        <circle class="cls-5" cx="920.6" cy="580.2" r="1.2"/>
        <path class="cls-5" d="M933.8,586.7s-1.1-3.1-1.3-3.7c-.3-.8-.7-1.2-1.4-1.2h-2.1c-.6,0-1.1.4-1.4,1.2-.2.5-1.3,3.6-1.3,3.7-.1.3,0,.7.4.8.3.1.7,0,.8-.4,0-.1.7-1.9,1.1-3,0,.3,0-.3-.9,4.4,0,.2.1.4.3.4h.5v4.3c0,.4.3.7.7.7s.7-.3.7-.7v-4.3h.3v4.3c0,.4.3.7.7.7s.7-.3.7-.7v-4.3h.5c.2,0,.4-.2.3-.4-.9-4.7-.8-4.2-.8-4.4.4,1.1,1,2.9,1,3,.1.3.5.5.8.4.3-.1.5-.4.4-.8h0Z"/>
        <circle class="cls-5" cx="930.1" cy="580.2" r="1.2"/>
        <path class="cls-5" d="M925.2,579.7c-.3,0-.5.2-.5.5v12.6c0,.3.2.5.5.5s.5-.2.5-.5v-12.6c0-.3-.2-.5-.5-.5Z"/>
      </g>
      <g id="elevator_x5F_icon_37">
        <path class="cls-3" d="M919.4,627.4h14c2.1,0,3.8,1.8,3.8,4v13.6c0,2.2-1.7,4-3.8,4h-14c-2.1,0-3.8-1.8-3.8-4v-13.6c0-2.2,1.7-4,3.8-4Z"/>
        <path class="cls-4" d="M930.6,634.9c0-.6-.5-1-1-1h-7c-.6,0-1,.5-1,1v9.8c0,.6.5,1,1,1h7c.6,0,1-.5,1-1v-9.8ZM929.6,634.5c.2,0,.3.2.3.3v9.8c0,.2-.2.3-.3.3h-7c-.2,0-.3-.2-.3-.3v-9.8c0-.2.2-.3.3-.3h7Z"/>
        <path class="cls-4" d="M926.1,633.8c.2,0,.3.2.3.3v11.2c0,.2-.2.3-.3.3s-.3-.2-.3-.3v-11.2c0-.2.2-.3.3-.3Z"/>
        <path class="cls-4" d="M923,631.4c0-.2.2-.3.3-.3h5.6c.2,0,.3.2.3.3v1.4c0,.2-.2.3-.3.3h-5.6c-.2,0-.3-.2-.3-.3v-1.4h0ZM923.6,631.7v.7h4.9v-.7h-4.9Z"/>
        <path class="cls-4" d="M932.5,640.7c.1.1.4.1.5,0l1-1c.1-.1.1-.4,0-.5-.1-.1-.4-.1-.5,0l-.5.5v-1.6c0-.2-.2-.3-.3-.3s-.3.2-.3.3v1.6l-.5-.5c-.1-.1-.4-.1-.5,0-.1.1-.1.4,0,.5l1,1h0Z"/>
        <path class="cls-4" d="M919.2,638.1c.1-.1.4-.1.5,0l1,1c.1.1.1.4,0,.5-.1.1-.4.1-.5,0l-.5-.5v1.6c0,.2-.2.3-.3.3s-.3-.2-.3-.3v-1.6l-.5.5c-.1.1-.4.1-.5,0-.1-.1-.1-.4,0-.5l1-1h0Z"/>
      </g>
      <g id="stairs-icon_29-2" data-name="stairs-icon_29">
        <path class="cls-3" d="M316.3,626.2h14c2.1,0,3.8,1.8,3.8,4v13.6c0,2.2-1.7,4-3.8,4h-14c-2.1,0-3.8-1.8-3.8-4v-13.6c0-2.2,1.7-4,3.8-4Z"/>
        <polygon class="cls-5" points="329.7 638.4 329.7 637.3 328.6 637.3 326.2 637.3 325.1 638.4 328 638.4 325.7 640.7 326.4 641.4 328.6 639.1 328.6 641.9 329.7 640.8 329.7 638.4"/>
        <polygon class="cls-5" points="319.5 640.3 322.2 640.3 322.2 637.6 324.9 637.6 324.9 634.7 327.8 634.7 327.8 632 330.5 632 330.5 630.9 326.7 630.9 326.7 633.6 323.8 633.6 323.8 636.5 321.1 636.5 321.1 639.2 318.5 639.2 318.5 641.9 316 641.9 316 642.9 319.5 642.9 319.5 640.3"/>
      </g>
      <path id="path1330" class="cls-1" d="M841.3,540.2h-21.7v1.1h21.7v-1.1ZM841.3,540.2v3.8h1.9v-3.8h-1.9ZM819.6,540.2h-1.9v3.8h1.9v-3.8ZM819.6,540.2v-10.9h1.9v10.9h-1.9ZM841.3,540.2v-10.9h-1.9v10.9h1.9Z"/>
      <path id="path1330-2" data-name="path1330" class="cls-1" d="M658,540.2h-21.7v1.1h21.7v-1.1ZM658,540.2v3.8h1.9v-3.8h-1.9ZM636.3,540.2h-1.9v3.8h1.9v-3.8ZM636.3,540.2v-10.9h1.9v10.9h-1.9ZM658,540.2v-10.9h-1.9v10.9h1.9Z"/>
      <path id="path1330-3" data-name="path1330" class="cls-1" d="M322,437h-21.7v1.1h21.7v-1.1ZM322,437v3.8h1.9v-3.8h-1.9ZM300.3,437h-1.9v3.8h1.9v-3.8ZM300.3,437v-10.9h1.9v10.9h-1.9ZM322,437v-10.9h-1.9v10.9h1.9Z"/>
      <path id="path1330-4" data-name="path1330" class="cls-1" d="M104.7,368.9h21.7v-1.1h-21.7v1.1ZM104.7,368.9v-3.8h-1.9v3.8h1.9ZM126.5,368.9h1.9v-3.8h-1.9v3.8ZM126.5,368.9v10.9h-1.9v-10.9h1.9ZM104.7,368.9v10.9h1.9v-10.9h-1.9Z"/>
      <path id="path1330-5" data-name="path1330" class="cls-1" d="M916.7,558.6h21.7v-1.1h-21.7v1.1ZM916.7,558.6v-3.8h-1.9v3.8h1.9ZM938.4,558.6h1.9v-3.8h-1.9v3.8ZM938.4,558.6v10.9h-1.9v-10.9h1.9ZM916.7,558.6v10.9h1.9v-10.9h-1.9Z"/>
      <path id="path1330-6" data-name="path1330" class="cls-1" d="M274.3,464.7h21.7v-1.1h-21.7v1.1ZM274.3,464.7v-3.8h-1.9v3.8h1.9ZM296,464.7h1.9v-3.8h-1.9v3.8ZM296,464.7v10.9h-1.9v-10.9h1.9ZM274.3,464.7v10.9h1.9v-10.9h-1.9Z"/>
      <path id="path1330-7" data-name="path1330" class="cls-1" d="M387.1,472.4v21.7h1.1v-21.7h-1.1ZM387.1,472.4h3.8v-1.9h-3.8v1.9ZM387.1,494.1v1.9h3.8v-1.9h-3.8ZM387.1,494.1h-10.9v-1.9h10.9v1.9ZM387.1,472.4h-10.9v1.9h10.9v-1.9Z"/>
      <path id="path1330-8" data-name="path1330" class="cls-1" d="M387.2,509v21.7h1.1v-21.7h-1.1ZM387.2,509h3.8v-1.9h-3.8v1.9ZM387.2,530.7v1.9h3.8v-1.9h-3.8ZM387.2,530.7h-10.9v-1.9h10.9v1.9ZM387.2,509h-10.9v1.9h10.9v-1.9Z"/>
      <path id="path1330-9" data-name="path1330" class="cls-1" d="M387.3,583.3v21.7h1.1v-21.7h-1.1ZM387.3,583.3h3.8v-1.9h-3.8v1.9ZM387.3,605v1.9h3.8v-1.9h-3.8ZM387.3,605h-10.9v-1.9h10.9v1.9ZM387.3,583.3h-10.9v1.9h10.9v-1.9Z"/>
      <path id="path1330-10" data-name="path1330" class="cls-1" d="M427.6,567.8h21.7v-1.1h-21.7v1.1ZM427.6,567.8v-3.8h-1.9v3.8h1.9ZM449.3,567.8h1.9v-3.8h-1.9v3.8ZM449.3,567.8v10.9h-1.9v-10.9h1.9ZM427.6,567.8v10.9h1.9v-10.9h-1.9Z"/>
      <path id="path1330-11" data-name="path1330" class="cls-1" d="M568.9,706.1h-21.7v1.1h21.7v-1.1ZM568.9,706.1v3.8h1.9v-3.8h-1.9ZM547.1,706.1h-1.9v3.8h1.9v-3.8ZM547.1,706.1v-10.9h1.9v10.9h-1.9ZM568.9,706.1v-10.9h-1.9v10.9h1.9Z"/>
      <path id="path1330-12" data-name="path1330" class="cls-1" d="M750.5,706.1h-21.7v1.1h21.7v-1.1ZM750.5,706.1v3.8h1.9v-3.8h-1.9ZM728.7,706.1h-1.9v3.8h1.9v-3.8ZM728.7,706.1v-10.9h1.9v10.9h-1.9ZM750.5,706.1v-10.9h-1.9v10.9h1.9Z"/>
      <path id="path1330-13" data-name="path1330" class="cls-1" d="M821.4,706.1h-21.7v1.1h21.7v-1.1ZM821.4,706.1v3.8h1.9v-3.8h-1.9ZM799.7,706.1h-1.9v3.8h1.9v-3.8ZM799.7,706.1v-10.9h1.9v10.9h-1.9ZM821.4,706.1v-10.9h-1.9v10.9h1.9Z"/>
      <path id="path1330-14" data-name="path1330" class="cls-1" d="M207.2,696.7h21.7v-1.1h-21.7v1.1ZM207.2,696.7v-3.8h-1.9v3.8h1.9ZM228.9,696.7h1.9v-3.8h-1.9v3.8ZM228.9,696.7v10.9h-1.9v-10.9h1.9ZM207.2,696.7v10.9h1.9v-10.9h-1.9Z"/>
      <path id="path1330-15" data-name="path1330" class="cls-1" d="M384.3,696.7h21.7v-1.1h-21.7v1.1ZM384.3,696.7v-3.8h-1.9v3.8h1.9ZM406,696.7h1.9v-3.8h-1.9v3.8ZM406,696.7v10.9h-1.9v-10.9h1.9ZM384.3,696.7v10.9h1.9v-10.9h-1.9Z"/>
      <path id="path1330-16" data-name="path1330" class="cls-1" d="M78.7,654.2v21.7h1.1v-21.7h-1.1ZM78.7,654.2h3.8v-1.9h-3.8v1.9ZM78.7,675.9v1.9h3.8v-1.9h-3.8ZM78.7,675.9h-10.9v-1.9h10.9v1.9ZM78.7,654.2h-10.9v1.9h10.9v-1.9Z"/>
      <path id="path1330-17" data-name="path1330" class="cls-1" d="M646.3,733.8h21.7v-1.1h-21.7v1.1ZM646.3,733.8v-3.8h-1.9v3.8h1.9ZM668.1,733.8h1.9v-3.8h-1.9v3.8ZM668.1,733.8v10.9h-1.9v-10.9h1.9ZM646.3,733.8v10.9h1.9v-10.9h-1.9Z"/>
      <path id="path1330-18" data-name="path1330" class="cls-1" d="M815.7,733.6h21.7v-1.1h-21.7v1.1ZM815.7,733.6v-3.8h-1.9v3.8h1.9ZM837.4,733.6h1.9v-3.8h-1.9v3.8ZM837.4,733.6v10.9h-1.9v-10.9h1.9ZM815.7,733.6v10.9h1.9v-10.9h-1.9Z"/>
      <path id="path1330-19" data-name="path1330" class="cls-1" d="M894.6,733.8h21.7v-1.1h-21.7v1.1ZM894.6,733.8v-3.8h-1.9v3.8h1.9ZM916.3,733.8h1.9v-3.8h-1.9v3.8ZM916.3,733.8v10.9h-1.9v-10.9h1.9ZM894.6,733.8v10.9h1.9v-10.9h-1.9Z"/>
    </g>
  </g>
</svg>