<?xml version="1.0" encoding="UTF-8"?>
<svg xmlns="http://www.w3.org/2000/svg" version="1.1" viewBox="0 0 1461.9 1149.1">
  <defs>
    <style>
      .cls-1 {
        fill: #7fba27;
      }

      .cls-2, .cls-3, .cls-4, .cls-5 {
        fill-rule: evenodd;
      }

      .cls-2, .cls-5 {
        fill: #fff;
      }

      .cls-6, .cls-4 {
        fill: #f3f3ef;
      }

      .cls-3 {
        fill: #d14a4a;
      }

      .cls-7 {
        display: none;
      }

      .cls-5 {
        stroke: #d14a4a;
        stroke-miterlimit: 10;
        stroke-width: 2.8px;
      }
    </style>
  </defs>
  <!-- Generator: Adobe Illustrator 28.7.1, SVG Export Plug-In . SVG Version: 1.2.0 Build 142)  -->
  <g>
    <g id="_Слой_1" data-name="Слой_1">
      <g id="_x32__этаж">
        <polygon id="f2-elevator-right" class="cls-5" points="865.5 642 971.4 642 971.4 594.6 865.5 594.6 865.5 642"/>
        <polygon id="f2-elevator-left" class="cls-5" points="333 588.2 333 510 317.4 510 270.3 510 270.3 588.2 333 588.2"/>
        <polygon id="f2-toilet-right" class="cls-5" points="865.5 594.6 1020.4 594.6 1020.4 536.3 865.5 536.3 865.5 594.6"/>
        <polygon id="f2-toilet-left" class="cls-5" points="374.9 640.6 374.9 510 329.4 510 329.4 590.4 329.4 640.6 374.9 640.6"/>
        <path id="f2-202" class="cls-5" d="M405.1,413.9v-175.6H117.3v101.3h102.5v74.3h185.2Z"/>
        <path id="f2-206" class="cls-5" d="M865.5,510.4V238.3c-4.8,0-98.6,0-197.1,0-86.7,0-169.7,0-173.4,0,0,32.9-.2,65.9-.2,98.8h-65v173.3h435.8Z"/>
        <path id="f2-207" class="cls-5" d="M865.5,510.4c0-63.8.4-272.1.8-272.1,16.7,0,64.6,0,79.7,0,1.9,0,22.9,0,24.9,0v98.8h72.5v173.3h-177.8Z"/>
        <path id="f2-208" class="cls-5" d="M1282.1,476.9v-172.3c-16.6,0-33.1,0-49.7,0v-66.3h-186.1v66.3h29.1v172.3h206.7Z"/>
        <polygon id="f2-209" class="cls-5" points="1458.4 518.6 1458.4 406.4 1458.4 237.7 1314.4 237.7 1314.4 518.6 1386.4 518.6 1458.4 518.6"/>
        <path id="f2-210" class="cls-5" d="M1436.4,691.8h22.3c0-13.2-.2-26.4-.3-39.5v-103.4h-144v172.2h122v-29.2Z"/>
        <path id="f2-211" class="cls-5" d="M1386,811.3h50.4v-61.7h-389.8v141.4c-8.9,0-17.7,0-26.6,0v20.4h366v-100.1Z"/>
        <path id="f2-214" class="cls-5" d="M970.4,794h49.8v-75.1h-145.4v192.4h95.7v-117.4Z"/>
        <path id="f2-216" class="cls-5" d="M874.7,911.4v-192.4h-110.6v192.4h110.6Z"/>
        <path id="f2-218" class="cls-5" d="M764.1,911.4v-192.4h-161.9v192.4h161.9Z"/>
        <path id="f2-220" class="cls-5" d="M602.2,911.4v-192.4h-172.6c0,24.9,0,49.9,0,74.8,16.3,0,32.6.2,49,.3v117.4h123.6Z"/>
        <path id="f2-223" class="cls-5" d="M404.4,911.4c0-34.8,0-69.7,0-104.5v-126.3h-183.5v115.1c-46.6-.1-93.3-.2-139.9-.3,0,38.7,0,77.3,0,116,107.8,0,215.6,0,323.5,0Z"/>
        <polygon id="f2-224" class="cls-5" points="191.3 763.5 191.3 693.5 191.3 588.2 4.1 588.2 4.1 763.5 97.7 763.5 191.3 763.5"/>
        <polygon id="f2-200" class="cls-5" points="191.3 588.7 191.3 561 191.3 519.4 4.1 519.4 4.1 588.7 97.7 588.7 191.3 588.7"/>
        <polygon id="f2-201" class="cls-5" points="191.3 519.4 191.3 459.6 191.3 369.8 4.1 369.8 4.1 519.4 97.7 519.4 191.3 519.4"/>
        <polygon id="f2-203" class="cls-5" points="313.9 510 313.9 481.7 313.9 439.1 219.5 439.1 219.5 510 266.7 510 313.9 510"/>
        <polygon id="f2-204" class="cls-5" points="313.9 481.7 374.9 481.7 374.9 439.1 313.9 439.1 313.9 481.7"/>
        <polygon id="f2-205" class="cls-5" points="329.4 510 374.9 510 374.9 481.7 313.9 481.7 313.9 510 329.4 510"/>
        <polygon id="f2-222" class="cls-5" points="501.8 691.3 501.8 634.3 501.8 548.6 429.7 548.6 429.7 691.3 465.7 691.3 501.8 691.3"/>
        <polygon id="f2-221" class="cls-5" points="602.9 691.3 602.9 634.3 602.9 548.6 501.8 548.6 501.8 691.3 552.4 691.3 602.9 691.3"/>
        <polygon id="f2-219" class="cls-5" points="688.3 691.3 688.3 650.1 688.3 588.2 602.9 588.2 602.9 691.3 645.6 691.3 688.3 691.3"/>
        <polygon id="f2-217" class="cls-5" points="764.1 691.3 764.1 650.1 764.1 588.2 688.3 588.2 688.3 691.3 726.2 691.3 764.1 691.3"/>
        <polygon id="f2-215" class="cls-5" points="836.7 691.3 836.7 650.1 836.7 588.2 764.1 588.2 764.1 691.3 800.4 691.3 836.7 691.3"/>
        <path id="f2-213" class="cls-5" d="M1020.4,690.7h55c0,10.1-.1,20.2-.2,30.3h105.1v-132.9h-159.9v102.6Z"/>
        <polygon id="f2-212" class="cls-5" points="1281.4 721.1 1281.4 668 1281.4 588.2 1180.3 588.2 1180.3 721.1 1230.8 721.1 1281.4 721.1"/>
        <path class="cls-3" d="M1461,235.4H.9v678.3h1460.1V235.4h0ZM6.5,241.2h1449v666.9H6.5V241.2h0Z"/>
        <g id="icons">
          <g id="elevator_x5F_icon">
            <path class="cls-3" d="M290.8,538h14.5c2.2,0,3.9,1.9,3.9,4.1v14.1c0,2.3-1.8,4.1-3.9,4.1h-14.5c-2.2,0-3.9-1.9-3.9-4.1v-14.1c0-2.3,1.8-4.1,3.9-4.1Z"/>
            <path class="cls-4" d="M302.4,545.6c0-.6-.5-1-1-1h-7.2c-.6,0-1,.5-1,1v10.1c0,.6.5,1,1,1h7.2c.6,0,1-.5,1-1v-10.1ZM301.3,545.2c.2,0,.3.2.3.3v10.1c0,.2-.2.3-.3.3h-7.2c-.2,0-.3-.2-.3-.3v-10.1c0-.2.2-.3.3-.3h7.2Z"/>
            <path class="cls-4" d="M297.6,544.5c.2,0,.3.2.3.3v11.6c0,.2-.2.3-.3.3s-.3-.2-.3-.3v-11.6c0-.2.2-.3.3-.3Z"/>
            <path class="cls-4" d="M294.4,542c0-.2.2-.3.3-.3h5.8c.2,0,.3.2.3.3v1.4c0,.2-.2.3-.3.3h-5.8c-.2,0-.3-.2-.3-.3v-1.4h0ZM295.2,542.3v.7h5.1v-.7h-5.1Z"/>
            <path class="cls-4" d="M304.3,551.6c.1.1.4.1.5,0l1-1c.1-.1.1-.4,0-.5s-.4-.1-.5,0l-.5.5v-1.7c0-.2-.2-.3-.3-.3s-.3.2-.3.3v1.7l-.5-.5c-.1-.1-.4-.1-.5,0s-.1.4,0,.5l1,1h.1Z"/>
            <path class="cls-4" d="M290.6,548.9c.1-.1.4-.1.5,0l1,1c.1.1.1.4,0,.5s-.4.1-.5,0l-.5-.5v1.7c0,.2-.2.3-.3.3s-.3-.2-.3-.3v-1.7l-.5.5c-.1.1-.4.1-.5,0s-.1-.4,0-.5l1-1h.1Z"/>
          </g>
          <g id="toilet-icon">
            <path class="cls-3" d="M344.1,561.6h14.5c2.2,0,3.9,1.9,3.9,4.1v14.1c0,2.3-1.8,4.1-3.9,4.1h-14.5c-2.2,0-3.9-1.9-3.9-4.1v-14.1c0-2.3,1.8-4.1,3.9-4.1Z"/>
            <path class="cls-6" d="M347.7,567.9h-3.3c-.8,0-1.4.6-1.4,1.4v4.6c0,.3.2.6.6.6h0c.3,0,.6-.3.6-.6v-4.6h0s0-.1.1-.1c0,0,.1,0,.1.1v10.5c0,.4.3.7.7.7s.7-.3.7-.7v-6h.3v6c0,.4.3.7.7.7s.7-.3.7-.7v-10.5s0-.1.1-.1c0,0,.1,0,.1.1h0v4.6c0,.3.3.6.6.6h0c.3,0,.6-.3.6-.6v-4.6h0c0-.8-.6-1.4-1.4-1.4h.1Z"/>
            <circle class="cls-6" cx="346.1" cy="566.2" r="1.2"/>
            <path class="cls-6" d="M359.8,573s-1.1-3.2-1.3-3.8c-.3-.8-.7-1.2-1.4-1.2h-2.2c-.6,0-1.1.4-1.4,1.2-.2.5-1.3,3.7-1.3,3.8-.1.3,0,.7.4.8.3.1.7,0,.8-.4,0-.1.7-2,1.1-3.1,0,.3,0-.3-.9,4.6,0,.2.1.4.3.4h.5v4.4c0,.4.3.7.7.7s.7-.3.7-.7v-4.4h.3v4.4c0,.4.3.7.7.7s.7-.3.7-.7v-4.4h.5c.2,0,.4-.2.3-.4-.9-4.9-.8-4.3-.8-4.6.4,1.1,1,3,1,3.1.1.3.5.5.8.4s.5-.4.4-.8h0Z"/>
            <circle class="cls-6" cx="356" cy="566.2" r="1.2"/>
            <path class="cls-6" d="M350.8,565.7c-.3,0-.5.2-.5.5v13c0,.3.2.5.5.5s.5-.2.5-.5v-13c0-.3-.2-.5-.5-.5Z"/>
          </g>
          <g id="stairs-icon">
            <path class="cls-3" d="M48.1,274.6h14.5c2.2,0,3.9,1.9,3.9,4.1v14.1c0,2.3-1.8,4.1-3.9,4.1h-14.5c-2.2,0-3.9-1.9-3.9-4.1v-14.1c0-2.3,1.8-4.1,3.9-4.1Z"/>
            <polygon class="cls-6" points="62 287.3 62 286.1 60.8 286.1 58.4 286.1 57.2 287.3 60.2 287.3 57.8 289.6 58.5 290.4 60.8 288 60.8 290.9 62 289.7 62 287.3"/>
            <polygon class="cls-6" points="51.4 289.2 54.2 289.2 54.2 286.4 57 286.4 57 283.4 60 283.4 60 280.6 62.8 280.6 62.8 279.5 58.9 279.5 58.9 282.3 55.9 282.3 55.9 285.3 53.1 285.3 53.1 288.1 50.3 288.1 50.3 290.9 47.8 290.9 47.8 291.9 51.4 291.9 51.4 289.2"/>
          </g>
          <g id="stairs-icon_29">
            <path class="cls-3" d="M47.6,830.6h14.5c2.2,0,3.9,1.9,3.9,4.1v14.1c0,2.3-1.8,4.1-3.9,4.1h-14.5c-2.2,0-3.9-1.9-3.9-4.1v-14.1c0-2.3,1.8-4.1,3.9-4.1Z"/>
            <polygon class="cls-6" points="61.5 843.2 61.5 842.2 60.4 842.2 57.9 842.2 56.8 843.2 59.8 843.2 57.4 845.6 58.1 846.3 60.4 844 60.4 846.9 61.5 845.7 61.5 843.2"/>
            <polygon class="cls-6" points="51 845.2 53.8 845.2 53.8 842.4 56.5 842.4 56.5 839.4 59.5 839.4 59.5 836.6 62.3 836.6 62.3 835.5 58.4 835.5 58.4 838.3 55.4 838.3 55.4 841.4 52.6 841.4 52.6 844.1 49.9 844.1 49.9 846.9 47.4 846.9 47.4 848 51 848 51 845.2"/>
          </g>
          <g id="stairs-icon_30">
            <path class="cls-3" d="M447.3,830.6h14.5c2.2,0,3.9,1.9,3.9,4.1v14.1c0,2.3-1.8,4.1-3.9,4.1h-14.5c-2.2,0-3.9-1.9-3.9-4.1v-14.1c0-2.3,1.8-4.1,3.9-4.1Z"/>
            <polygon class="cls-6" points="461.2 843.2 461.2 842.1 460.1 842.1 457.6 842.1 456.5 843.2 459.5 843.2 457.1 845.6 457.7 846.3 460.1 843.9 460.1 846.8 461.2 845.7 461.2 843.2"/>
            <polygon class="cls-6" points="450.7 845.1 453.5 845.1 453.5 842.4 456.2 842.4 456.2 839.3 459.3 839.3 459.3 836.6 462 836.6 462 835.4 458.2 835.4 458.2 838.2 455.2 838.2 455.2 841.3 452.4 841.3 452.4 844 449.6 844 449.6 846.8 447.1 846.8 447.1 847.9 450.7 847.9 450.7 845.1"/>
          </g>
          <g id="stairs-icon_31">
            <path class="cls-3" d="M987.4,830.5h14.5c2.2,0,3.9,1.9,3.9,4.1v14.1c0,2.3-1.8,4.1-3.9,4.1h-14.5c-2.2,0-3.9-1.9-3.9-4.1v-14.1c0-2.3,1.8-4.1,3.9-4.1Z"/>
            <polygon class="cls-6" points="1001.3 843.1 1001.3 842.1 1000.1 842.1 997.6 842.1 996.6 843.1 999.6 843.1 997.1 845.5 997.8 846.2 1000.1 843.9 1000.1 846.7 1001.3 845.6 1001.3 843.1"/>
            <polygon class="cls-6" points="990.7 845.1 993.5 845.1 993.5 842.3 996.3 842.3 996.3 839.3 999.3 839.3 999.3 836.5 1002.1 836.5 1002.1 835.4 998.3 835.4 998.3 838.2 995.2 838.2 995.2 841.3 992.5 841.3 992.5 844 989.7 844 989.7 846.7 987.2 846.7 987.2 847.9 990.7 847.9 990.7 845.1"/>
          </g>
          <g id="stairs-icon_33">
            <path class="cls-3" d="M447.7,274.9h14.5c2.2,0,3.9,1.9,3.9,4.1v14.1c0,2.3-1.8,4.1-3.9,4.1h-14.5c-2.2,0-3.9-1.9-3.9-4.1v-14.1c0-2.3,1.8-4.1,3.9-4.1Z"/>
            <polygon class="cls-6" points="461.5 287.6 461.5 286.4 460.4 286.4 458 286.4 456.9 287.6 459.9 287.6 457.5 289.9 458.1 290.7 460.4 288.3 460.4 291.2 461.5 290 461.5 287.6"/>
            <polygon class="cls-6" points="451.1 289.5 453.8 289.5 453.8 286.7 456.5 286.7 456.5 283.7 459.6 283.7 459.6 280.9 462.3 280.9 462.3 279.8 458.5 279.8 458.5 282.6 455.4 282.6 455.4 285.6 452.7 285.6 452.7 288.4 449.9 288.4 449.9 291.2 447.4 291.2 447.4 292.2 451.1 292.2 451.1 289.5"/>
          </g>
          <g id="toilet-icon_36">
            <path class="cls-3" d="M910.4,553.6h14.5c2.2,0,3.9,1.9,3.9,4.1v14.1c0,2.3-1.8,4.1-3.9,4.1h-14.5c-2.2,0-3.9-1.9-3.9-4.1v-14.1c0-2.3,1.8-4.1,3.9-4.1Z"/>
            <path class="cls-6" d="M914.1,559.9h-3.3c-.8,0-1.4.6-1.4,1.4v4.6c0,.3.2.6.6.6h0c.3,0,.6-.3.6-.6v-4.6h0s0-.1.1-.1.1,0,.1.1v10.5c0,.4.3.7.7.7s.7-.3.7-.7v-6h.3v6c0,.4.3.7.7.7s.7-.3.7-.7v-10.5s0-.1.1-.1c0,0,.1,0,.1.1h0v4.6c0,.3.3.6.6.6h0c.3,0,.6-.3.6-.6v-4.6h0c0-.8-.6-1.4-1.4-1.4h.1Z"/>
            <circle class="cls-6" cx="912.4" cy="558.3" r="1.2"/>
            <path class="cls-6" d="M926.1,565s-1.1-3.2-1.3-3.8c-.3-.8-.7-1.2-1.4-1.2h-2.2c-.6,0-1.1.4-1.4,1.2-.2.5-1.3,3.7-1.3,3.8-.1.3,0,.7.4.8.3.1.7,0,.8-.4,0-.1.7-2,1.1-3.1,0,.3,0-.3-.9,4.6,0,.2.1.4.3.4h.5v4.4c0,.4.3.7.7.7s.7-.3.7-.7v-4.4h.3v4.4c0,.4.3.7.7.7s.7-.3.7-.7v-4.4h.5c.2,0,.4-.2.3-.4-.9-4.9-.8-4.3-.8-4.6.4,1.1,1,3,1,3.1.1.3.5.5.8.4s.5-.4.4-.8h0Z"/>
            <circle class="cls-6" cx="922.3" cy="558.3" r="1.2"/>
            <path class="cls-6" d="M917.2,557.7c-.3,0-.5.2-.5.5v13c0,.3.2.5.5.5s.5-.2.5-.5v-13c0-.3-.2-.5-.5-.5Z"/>
          </g>
          <g id="elevator_x5F_icon_37">
            <path class="cls-3" d="M911.2,607.1h14.5c2.2,0,3.9,1.9,3.9,4.1v14.1c0,2.3-1.8,4.1-3.9,4.1h-14.5c-2.2,0-3.9-1.9-3.9-4.1v-14.1c0-2.3,1.8-4.1,3.9-4.1Z"/>
            <path class="cls-4" d="M922.8,614.9c0-.6-.5-1-1-1h-7.2c-.6,0-1,.5-1,1v10.1c0,.6.5,1,1,1h7.2c.6,0,1-.5,1-1v-10.1ZM921.7,614.4c.2,0,.3.2.3.3v10.1c0,.2-.2.3-.3.3h-7.2c-.2,0-.3-.2-.3-.3v-10.1c0-.2.2-.3.3-.3h7.2Z"/>
            <path class="cls-4" d="M918.1,613.7c.2,0,.3.2.3.3v11.6c0,.2-.2.3-.3.3s-.3-.2-.3-.3v-11.6c0-.2.2-.3.3-.3Z"/>
            <path class="cls-4" d="M914.9,611.2c0-.2.2-.3.3-.3h5.8c.2,0,.3.2.3.3v1.4c0,.2-.2.3-.3.3h-5.8c-.2,0-.3-.2-.3-.3v-1.4h0ZM915.5,611.5v.7h5.1v-.7h-5.1Z"/>
            <path class="cls-4" d="M924.7,620.9c.1.1.4.1.5,0l1-1c.1-.1.1-.4,0-.5s-.4-.1-.5,0l-.5.5v-1.7c0-.2-.2-.3-.3-.3s-.3.2-.3.3v1.7l-.5-.5c-.1-.1-.4-.1-.5,0s-.1.4,0,.5l1,1h.1Z"/>
            <path class="cls-4" d="M911,618.2c.1-.1.4-.1.5,0l1,1c.1.1.1.4,0,.5s-.4.1-.5,0l-.5-.5v1.7c0,.2-.2.3-.3.3s-.3-.2-.3-.3v-1.7l-.5.5c-.1.1-.4.1-.5,0s-.1-.4,0-.5l1-1h.1Z"/>
          </g>
          <g id="stairs-icon_29-2">
            <path class="cls-3" d="M302,605.9h14.5c2.2,0,3.9,1.9,3.9,4.1v14.1c0,2.3-1.8,4.1-3.9,4.1h-14.5c-2.2,0-3.9-1.9-3.9-4.1v-14.1c0-2.3,1.8-4.1,3.9-4.1Z"/>
            <polygon class="cls-6" points="315.9 618.5 315.9 617.3 314.7 617.3 312.2 617.3 311.1 618.5 314.1 618.5 311.7 620.9 312.4 621.6 314.7 619.2 314.7 622.1 315.9 621 315.9 618.5"/>
            <polygon class="cls-6" points="305.3 620.4 308.1 620.4 308.1 617.7 310.9 617.7 310.9 614.7 313.9 614.7 313.9 611.9 316.7 611.9 316.7 610.7 312.8 610.7 312.8 613.5 309.8 613.5 309.8 616.5 307 616.5 307 619.3 304.3 619.3 304.3 622.1 301.7 622.1 301.7 623.1 305.3 623.1 305.3 620.4"/>
          </g>
          <g id="stairs-icon_31-2" data-name="stairs-icon_31">
            <path class="cls-3" d="M1403.3,830.9h14.5c2.2,0,3.9,1.9,3.9,4.1v14.1c0,2.3-1.8,4.1-3.9,4.1h-14.5c-2.2,0-3.9-1.9-3.9-4.1v-14.1c0-2.3,1.8-4.1,3.9-4.1Z"/>
            <polygon class="cls-6" points="1417.2 843.5 1417.2 842.5 1416.1 842.5 1413.6 842.5 1412.6 843.5 1415.6 843.5 1413.1 845.9 1413.8 846.6 1416.1 844.3 1416.1 847.2 1417.2 846 1417.2 843.5"/>
            <polygon class="cls-6" points="1406.7 845.5 1409.4 845.5 1409.4 842.7 1412.2 842.7 1412.2 839.7 1415.2 839.7 1415.2 836.9 1418 836.9 1418 835.8 1414.2 835.8 1414.2 838.6 1411.1 838.6 1411.1 841.7 1408.4 841.7 1408.4 844.4 1405.6 844.4 1405.6 847.2 1403.1 847.2 1403.1 848.3 1406.7 848.3 1406.7 845.5"/>
          </g>
          <g id="stairs-icon_31-3" data-name="stairs-icon_31">
            <path class="cls-3" d="M987.4,606.9h14.5c2.2,0,3.9,1.9,3.9,4.1v14.1c0,2.3-1.8,4.1-3.9,4.1h-14.5c-2.2,0-3.9-1.9-3.9-4.1v-14.1c0-2.3,1.8-4.1,3.9-4.1Z"/>
            <polygon class="cls-6" points="1001.3 619.5 1001.3 618.5 1000.1 618.5 997.6 618.5 996.6 619.5 999.6 619.5 997.1 621.9 997.8 622.6 1000.1 620.3 1000.1 623.2 1001.3 622 1001.3 619.5"/>
            <polygon class="cls-6" points="990.7 621.5 993.5 621.5 993.5 618.7 996.3 618.7 996.3 615.7 999.3 615.7 999.3 612.9 1002.1 612.9 1002.1 611.8 998.3 611.8 998.3 614.6 995.2 614.6 995.2 617.7 992.5 617.7 992.5 620.4 989.7 620.4 989.7 623.2 987.2 623.2 987.2 624.3 990.7 624.3 990.7 621.5"/>
          </g>
          <g id="stairs-icon_33-2" data-name="stairs-icon_33">
            <path class="cls-3" d="M987.4,274.9h14.5c2.2,0,3.9,1.9,3.9,4.1v14.1c0,2.3-1.8,4.1-3.9,4.1h-14.5c-2.2,0-3.9-1.9-3.9-4.1v-14.1c0-2.3,1.8-4.1,3.9-4.1Z"/>
            <polygon class="cls-6" points="1001.3 287.6 1001.3 286.4 1000.1 286.4 997.7 286.4 996.6 287.6 999.6 287.6 997.2 289.9 997.8 290.7 1000.1 288.3 1000.1 291.2 1001.3 290 1001.3 287.6"/>
            <polygon class="cls-6" points="990.8 289.5 993.5 289.5 993.5 286.7 996.3 286.7 996.3 283.7 999.3 283.7 999.3 280.9 1002.1 280.9 1002.1 279.8 998.3 279.8 998.3 282.6 995.2 282.6 995.2 285.6 992.5 285.6 992.5 288.4 989.7 288.4 989.7 291.2 987.2 291.2 987.2 292.2 990.8 292.2 990.8 289.5"/>
          </g>
          <g id="stairs-icon_33-3" data-name="stairs-icon_33">
            <path class="cls-3" d="M1248.3,275.3h14.5c2.2,0,3.9,1.9,3.9,4.1v14.1c0,2.3-1.8,4.1-3.9,4.1h-14.5c-2.2,0-3.9-1.9-3.9-4.1v-14.1c0-2.3,1.8-4.1,3.9-4.1Z"/>
            <polygon class="cls-6" points="1262.2 287.9 1262.2 286.7 1261 286.7 1258.7 286.7 1257.5 287.9 1260.5 287.9 1258.1 290.3 1258.8 291 1261 288.6 1261 291.5 1262.2 290.4 1262.2 287.9"/>
            <polygon class="cls-6" points="1251.7 289.8 1254.4 289.8 1254.4 287 1257.2 287 1257.2 284 1260.2 284 1260.2 281.3 1263 281.3 1263 280.1 1259.2 280.1 1259.2 282.9 1256.1 282.9 1256.1 285.9 1253.4 285.9 1253.4 288.7 1250.6 288.7 1250.6 291.5 1248.1 291.5 1248.1 292.5 1251.7 292.5 1251.7 289.8"/>
          </g>
        </g>
        <g id="doors">
          <path id="path1330-3" class="cls-2" d="M214.9,340h-22.5v1.1h22.5v-1.1ZM214.9,340v3.9h2v-3.9h-2ZM192.5,340h-2v3.9h2v-3.9ZM192.5,340v-11.3h2v11.3h-2ZM214.9,340v-11.3h-2v11.3h2Z"/>
          <path id="path1330-3-2" data-name="path1330-3" class="cls-2" d="M149,369.5h22.5v-1.1h-22.5v1.1ZM149,369.5v-3.9h-2v3.9h2ZM171.5,369.5h2v-3.9h-2v3.9ZM171.5,369.5v11.3h-2v-11.3h2ZM149,369.5v11.3h2v-11.3h-2Z"/>
          <path id="path1330-3-3" data-name="path1330-3" class="cls-2" d="M240.9,438.6h22.5v-1.1h-22.5v1.1ZM240.9,438.6v-3.9h-2v3.9h2ZM263.3,438.6h2v-3.9h-2v3.9ZM263.3,438.6v11.3h-2v-11.3h2ZM240.9,438.6v11.3h2v-11.3h-2Z"/>
          <path id="path1330-3-4" data-name="path1330-3" class="cls-2" d="M191.6,539.5v22.5h1.1v-22.5h-1.1ZM191.6,539.5h3.9v-2h-3.9v2ZM191.6,561.9v2h3.9v-2h-3.9ZM191.6,561.9h-11.3v-2h11.3v2ZM191.6,539.5h-11.3v2h11.3v-2Z"/>
          <path id="path1330-3-5" data-name="path1330-3" class="cls-2" d="M375.3,562.4v22.5h1.1v-22.5h-1.1ZM375.3,562.4h3.9v-2h-3.9v2ZM375.3,584.9v2h3.9v-2h-3.9ZM375.3,584.9h-11.3v-2h11.3v2ZM375.3,562.4h-11.3v2h11.3v-2Z"/>
          <path id="path1330-3-6" data-name="path1330-3" class="cls-2" d="M375.3,484.6v22.5h1.1v-22.5h-1.1ZM375.3,484.6h3.9v-2h-3.9v2ZM375.3,507.1v2h3.9v-2h-3.9ZM375.3,507.1h-11.3v-2h11.3v2ZM375.3,484.6h-11.3v2h11.3v-2Z"/>
          <path id="path1330-3-7" data-name="path1330-3" class="cls-2" d="M375.3,451.4v22.5h1.1v-22.5h-1.1ZM375.3,451.4h3.9v-2h-3.9v2ZM375.3,473.8v2h3.9v-2h-3.9ZM375.3,473.8h-11.3v-2h11.3v2ZM375.3,451.4h-11.3v2h11.3v-2Z"/>
          <path id="path1330-3-8" data-name="path1330-3" class="cls-2" d="M168.6,763.9h-22.5v1.1h22.5v-1.1ZM168.6,763.9v3.9h2v-3.9h-2ZM146.1,763.9h-2v3.9h2v-3.9ZM146.1,763.9v-11.3h2v11.3h-2ZM168.6,763.9v-11.3h-2v11.3h2Z"/>
          <path id="path1330-3-9" data-name="path1330-3" class="cls-2" d="M192.5,795.4h22.5v-1.1h-22.5v1.1ZM192.5,795.4v-3.9h-2v3.9h2ZM214.9,795.4h2v-3.9h-2v3.9ZM214.9,795.4v11.3h-2v-11.3h2ZM192.5,795.4v11.3h2v-11.3h-2Z"/>
          <path id="path1330-3-10" data-name="path1330-3" class="cls-2" d="M553.6,718.6h22.5v-1.1h-22.5v1.1ZM553.6,718.6v-3.9h-2v3.9h2ZM576.1,718.6h2v-3.9h-2v3.9ZM576.1,718.6v11.3h-2v-11.3h2ZM553.6,718.6v11.3h2v-11.3h-2Z"/>
          <path id="path1330-3-11" data-name="path1330-3" class="cls-2" d="M683.4,718.6h22.5v-1.1h-22.5v1.1ZM683.4,718.6v-3.9h-2v3.9h2ZM705.8,718.6h2v-3.9h-2v3.9ZM705.8,718.6v11.3h-2v-11.3h2ZM683.4,718.6v11.3h2v-11.3h-2Z"/>
          <path id="path1330-3-12" data-name="path1330-3" class="cls-2" d="M814.1,718.6h22.5v-1.1h-22.5v1.1ZM814.1,718.6v-3.9h-2v3.9h2ZM836.5,718.6h2v-3.9h-2v3.9ZM836.5,718.6v11.3h-2v-11.3h2ZM814.1,718.6v11.3h2v-11.3h-2Z"/>
          <path id="path1330-3-13" data-name="path1330-3" class="cls-2" d="M1020.5,761.8v22.5h1.1v-22.5h-1.1ZM1020.5,761.8h3.9v-2h-3.9v2ZM1020.5,784.2v2h3.9v-2h-3.9ZM1020.5,784.2h-11.3v-2h11.3v2ZM1020.5,761.8h-11.3v2h11.3v-2Z"/>
          <path id="path1330-3-14" data-name="path1330-3" class="cls-2" d="M1280.3,749.3h22.5v-1.1h-22.5v1.1ZM1280.3,749.3v-3.9h-2v3.9h2ZM1302.7,749.3h2v-3.9h-2v3.9ZM1302.7,749.3v11.3h-2v-11.3h2ZM1280.3,749.3v11.3h2v-11.3h-2Z"/>
          <path id="path1330-3-15" data-name="path1330-3" class="cls-2" d="M429.3,673.3v-22.5h-1.1v22.5h1.1ZM429.3,673.3h-3.9v2h3.9v-2ZM429.3,650.9v-2h-3.9v2h3.9ZM429.3,650.9h11.3v2h-11.3v-2ZM429.3,673.3h11.3v-2h-11.3v2Z"/>
          <path id="path1330-3-16" data-name="path1330-3" class="cls-2" d="M558.6,510.8h-22.5v1.1h22.5v-1.1ZM558.6,510.8v3.9h2v-3.9h-2ZM536.1,510.8h-2v3.9h2v-3.9ZM536.1,510.8v-11.3h2v11.3h-2ZM558.6,510.8v-11.3h-2v11.3h2Z"/>
          <path id="path1330-3-17" data-name="path1330-3" class="cls-2" d="M540.5,691.7h-22.5v1.1h22.5v-1.1ZM540.5,691.7v3.9h2v-3.9h-2ZM518.1,691.7h-2v3.9h2v-3.9ZM518.1,691.7v-11.3h2v11.3h-2ZM540.5,691.7v-11.3h-2v11.3h2Z"/>
          <path id="path1330-3-18" data-name="path1330-3" class="cls-2" d="M647.2,691.7h-22.5v1.1h22.5v-1.1ZM647.2,691.7v3.9h2v-3.9h-2ZM624.7,691.7h-2v3.9h2v-3.9ZM624.7,691.7v-11.3h2v11.3h-2ZM647.2,691.7v-11.3h-2v11.3h2Z"/>
          <path id="path1330-3-19" data-name="path1330-3" class="cls-2" d="M735,691.7h-22.5v1.1h22.5v-1.1ZM735,691.7v3.9h2v-3.9h-2ZM712.5,691.7h-2v3.9h2v-3.9ZM712.5,691.7v-11.3h2v11.3h-2ZM735,691.7v-11.3h-2v11.3h2Z"/>
          <path id="path1330-3-20" data-name="path1330-3" class="cls-2" d="M811.6,691.7h-22.5v1.1h22.5v-1.1ZM811.6,691.7v3.9h2v-3.9h-2ZM789.2,691.7h-2v3.9h2v-3.9ZM789.2,691.7v-11.3h2v11.3h-2ZM811.6,691.7v-11.3h-2v11.3h2Z"/>
          <path id="path1330-3-21" data-name="path1330-3" class="cls-2" d="M845.8,510.8h-22.5v1.1h22.5v-1.1ZM845.8,510.8v3.9h2v-3.9h-2ZM823.3,510.8h-2v3.9h2v-3.9ZM823.3,510.8v-11.3h2v11.3h-2ZM845.8,510.8v-11.3h-2v11.3h2Z"/>
          <path id="path1330-3-22" data-name="path1330-3" class="cls-2" d="M1043.6,353.1v22.5h1.1v-22.5h-1.1ZM1043.6,353.1h3.9v-2h-3.9v2ZM1043.6,375.5v2h3.9v-2h-3.9ZM1043.6,375.5h-11.3v-2h11.3v2ZM1043.6,353.1h-11.3v2h11.3v-2Z"/>
          <path id="path1330-3-23" data-name="path1330-3" class="cls-2" d="M1282.5,412.7v22.5h1.1v-22.5h-1.1ZM1282.5,412.7h3.9v-2h-3.9v2ZM1282.5,435.2v2h3.9v-2h-3.9ZM1282.5,435.2h-11.3v-2h11.3v2ZM1282.5,412.7h-11.3v2h11.3v-2Z"/>
          <path id="path1330-3-24" data-name="path1330-3" class="cls-2" d="M1314.1,378.1v-22.5h-1.1v22.5h1.1ZM1314.1,378.1h-3.9v2h3.9v-2ZM1314.1,355.6v-2h-3.9v2h3.9ZM1314.1,355.6h11.3v2h-11.3v-2ZM1314.1,378.1h11.3v-2h-11.3v2Z"/>
          <path id="path1330-3-25" data-name="path1330-3" class="cls-2" d="M1165.9,721.4h-22.5v1.1h22.5v-1.1ZM1165.9,721.4v3.9h2v-3.9h-2ZM1143.4,721.4h-2v3.9h2v-3.9ZM1143.4,721.4v-11.3h2v11.3h-2ZM1165.9,721.4v-11.3h-2v11.3h2Z"/>
          <path id="path1330-3-26" data-name="path1330-3" class="cls-2" d="M1220.9,721.4h-22.5v1.1h22.5v-1.1ZM1220.9,721.4v3.9h2v-3.9h-2ZM1198.4,721.4h-2v3.9h2v-3.9ZM1198.4,721.4v-11.3h2v11.3h-2ZM1220.9,721.4v-11.3h-2v11.3h2Z"/>
          <path id="path1330-3-27" data-name="path1330-3" class="cls-2" d="M1355.6,721.4h-22.5v1.1h22.5v-1.1ZM1355.6,721.4v3.9h2v-3.9h-2ZM1333.1,721.4h-2v3.9h2v-3.9ZM1333.1,721.4v-11.3h2v11.3h-2ZM1355.6,721.4v-11.3h-2v11.3h2Z"/>
          <path id="path1330-3-28" data-name="path1330-3" class="cls-2" d="M932.7,536h22.5v-1.1h-22.5v1.1ZM932.7,536v-3.9h-2v3.9h2ZM955.1,536h2v-3.9h-2v3.9ZM955.1,536v11.3h-2v-11.3h2ZM932.7,536v11.3h2v-11.3h-2Z"/>
        </g>
        <g id="point" class="cls-7">
          <circle id="p-1" class="cls-1" cx="245.7" cy="550.7" r="6.6"/>
          <circle id="obj-elevator" class="cls-1" cx="270.3" cy="550.7" r="6.6"/>
          <circle id="p-2" class="cls-1" cx="205.4" cy="550.7" r="6.6"/>
          <circle id="obj-200" class="cls-1" cx="191.3" cy="550.7" r="6.6"/>
          <circle id="p-3" class="cls-1" cx="205.4" cy="662.1" r="6.6"/>
          <circle id="p-223" class="cls-1" cx="205.4" cy="780.6" r="6.6"/>
          <circle id="obj-223" class="cls-1" cx="205.4" cy="796" r="6.6"/>
          <circle id="p-224" class="cls-1" cx="157.3" cy="780.6" r="6.6"/>
          <circle id="obj-224" class="cls-1" cx="157.3" cy="763.5" r="6.6"/>
          <circle id="p-4" class="cls-1" cx="401.4" cy="662.1" r="6.6"/>
          <circle id="p-222" class="cls-1" cx="417.2" cy="662.1" r="6.6"/>
          <circle id="obj-222" class="cls-1" cx="429.7" cy="662.1" r="6.6"/>
          <circle id="p-5" class="cls-1" cx="205.4" cy="426.5" r="6.6"/>
          <circle id="p-202" class="cls-1" cx="205.4" cy="355.6" r="6.6"/>
          <circle id="obj-202" class="cls-1" cx="205.4" cy="339.1" r="6.6"/>
          <circle id="p-201" class="cls-1" cx="160.3" cy="355.6" r="6.6"/>
          <circle id="obj-201" class="cls-1" cx="160.3" cy="370.5" r="6.6"/>
          <circle id="p-6" class="cls-1" cx="417.2" cy="705.7" r="6.6"/>
          <circle id="p-toilet-left" class="cls-1" cx="401.4" cy="573.7" r="6.6"/>
          <circle id="obj-toilet-left" class="cls-1" cx="374.9" cy="573.7" r="6.6"/>
          <circle id="p-7" class="cls-1" cx="401.4" cy="529.5" r="6.6"/>
          <circle id="p-205" class="cls-1" cx="401.4" cy="495.9" r="6.6"/>
          <circle id="obj-205" class="cls-1" cx="374.9" cy="495.9" r="6.6"/>
          <circle id="p-204" class="cls-1" cx="401.4" cy="462.6" r="6.6"/>
          <circle id="obj-204" class="cls-1" cx="374.9" cy="462.6" r="6.6"/>
          <circle id="p-8" class="cls-1" cx="401.4" cy="426.5" r="6.6"/>
          <circle id="p-203" class="cls-1" cx="252.3" cy="426.5" r="6.6"/>
          <circle id="obj-203" class="cls-1" cx="252.3" cy="439.1" r="6.6"/>
          <circle id="p-206" class="cls-1" cx="547.3" cy="529.5" r="6.6"/>
          <circle id="obj-206" class="cls-1" cx="547.3" cy="510.4" r="6.6"/>
          <circle id="p-206-2" class="cls-1" cx="834.6" cy="529.5" r="6.6"/>
          <circle id="obj-206-2" class="cls-1" cx="834.6" cy="510.4" r="6.6"/>
          <circle id="p-9" class="cls-1" cx="851.3" cy="529.5" r="6.6"/>
          <circle id="p-10" class="cls-1" cx="851.3" cy="522.9" r="6.6"/>
          <circle id="p-toilet-right" class="cls-1" cx="943.9" cy="522.9" r="6.6"/>
          <circle id="obj-toilet-right" class="cls-1" cx="943.9" cy="536.9" r="6.6"/>
          <circle id="p-11" class="cls-1" cx="1059.6" cy="522.9" r="6.6"/>
          <circle id="p-207" class="cls-1" cx="1059.6" cy="364.3" r="6.6"/>
          <circle id="obj-207" class="cls-1" cx="1043.3" cy="364.3" r="6.6"/>
          <circle id="p-12" class="cls-1" cx="1298.6" cy="522.9" r="6.6"/>
          <circle id="p-208" class="cls-1" cx="1298.6" cy="424" r="6.6"/>
          <circle id="obj-208" class="cls-1" cx="1281.5" cy="424" r="6.6"/>
          <circle id="p-209" class="cls-1" cx="1298.6" cy="366.9" r="6.6"/>
          <circle id="obj-209" class="cls-1" cx="1314.4" cy="366.9" r="6.6"/>
          <circle id="p-221" class="cls-1" cx="529.3" cy="705.7" r="6.6"/>
          <circle id="obj-221" class="cls-1" cx="529.3" cy="691.3" r="6.6"/>
          <circle id="p-220" class="cls-1" cx="564.9" cy="705.7" r="6.6"/>
          <circle id="obj-220" class="cls-1" cx="564.9" cy="719.6" r="6.6"/>
          <circle id="p-219" class="cls-1" cx="636" cy="705.7" r="6.6"/>
          <circle id="obj-219" class="cls-1" cx="636" cy="691.3" r="6.6"/>
          <circle id="p-218" class="cls-1" cx="694.6" cy="705.7" r="6.6"/>
          <circle id="obj-218" class="cls-1" cx="694.6" cy="719.6" r="6.6"/>
          <circle id="p-217" class="cls-1" cx="723.8" cy="705.7" r="6.6"/>
          <circle id="obj-217" class="cls-1" cx="723.8" cy="691.3" r="6.6"/>
          <circle id="p-215" class="cls-1" cx="800.4" cy="705.7" r="6.6"/>
          <circle id="obj-215" class="cls-1" cx="800.4" cy="691.3" r="6.6"/>
          <circle id="p-216" class="cls-1" cx="825.3" cy="705.7" r="6.6"/>
          <circle id="obj-216" class="cls-1" cx="825.3" cy="719.6" r="6.6"/>
          <circle id="p-13" class="cls-1" cx="851.5" cy="705.7" r="6.6"/>
          <circle id="p-14" class="cls-1" cx="918.4" cy="705.7" r="6.6"/>
          <circle id="obj-elevator-right" class="cls-1" cx="918.4" cy="642" r="6.6"/>
          <circle id="p-15" class="cls-1" cx="1033.6" cy="705.7" r="6.6"/>
          <circle id="p-16" class="cls-1" cx="1033.6" cy="735.6" r="6.6"/>
          <circle id="p-214" class="cls-1" cx="1033.6" cy="773" r="6.6"/>
          <circle id="obj-214" class="cls-1" cx="1020" cy="773" r="6.6"/>
          <circle id="p-213" class="cls-1" cx="1154.6" cy="735.6" r="6.6"/>
          <circle id="obj-213" class="cls-1" cx="1154.6" cy="720.6" r="6.6"/>
          <circle id="p-212" class="cls-1" cx="1209.7" cy="735.6" r="6.6"/>
          <circle id="obj-212" class="cls-1" cx="1209.7" cy="720.6" r="6.6"/>
          <circle id="p-211" class="cls-1" cx="1291.5" cy="735.6" r="6.6"/>
          <circle id="obj-211" class="cls-1" cx="1291.5" cy="749.6" r="6.6"/>
          <circle id="p-17" class="cls-1" cx="1298.6" cy="735.6" r="6.6"/>
          <circle id="p-210" class="cls-1" cx="1344.3" cy="735.6" r="6.6"/>
          <circle id="obj-210" class="cls-1" cx="1344.3" cy="720.6" r="6.6"/>
        </g>
      </g>
    </g>
  </g>
</svg>